<svg width="63" height="64" viewBox="0 0 63 64" fill="none" xmlns="http://www.w3.org/2000/svg">
<path d="M31.5068 3.35156C25.7959 3.35156 20.2132 5.04505 15.4647 8.21788C10.7163 11.3907 7.01529 15.9004 4.82981 21.1766C2.64433 26.4528 2.07251 32.2586 3.18666 37.8598C4.30081 43.461 7.05089 48.606 11.0891 52.6443C15.1274 56.6825 20.2724 59.4326 25.8736 60.5467C31.4748 61.6609 37.2806 61.0891 42.5568 58.9036C47.833 56.7181 52.3427 53.0171 55.5155 48.2687C58.6884 43.5202 60.3818 37.9375 60.3818 32.2266C60.3728 24.5712 57.3277 17.232 51.9146 11.8188C46.5014 6.40567 39.1622 3.36059 31.5068 3.35156ZM44.6318 34.8516H34.1318V45.3516C34.1318 46.0478 33.8553 46.7154 33.363 47.2077C32.8707 47.7 32.203 47.9766 31.5068 47.9766C30.8106 47.9766 30.143 47.7 29.6507 47.2077C29.1584 46.7154 28.8818 46.0478 28.8818 45.3516V34.8516H18.3818C17.6856 34.8516 17.018 34.575 16.5257 34.0827C16.0334 33.5904 15.7568 32.9228 15.7568 32.2266C15.7568 31.5304 16.0334 30.8627 16.5257 30.3704C17.018 29.8781 17.6856 29.6016 18.3818 29.6016H28.8818V19.1016C28.8818 18.4054 29.1584 17.7377 29.6507 17.2454C30.143 16.7531 30.8106 16.4766 31.5068 16.4766C32.203 16.4766 32.8707 16.7531 33.363 17.2454C33.8553 17.7377 34.1318 18.4054 34.1318 19.1016V29.6016H44.6318C45.328 29.6016 45.9957 29.8781 46.488 30.3704C46.9803 30.8627 47.2568 31.5304 47.2568 32.2266C47.2568 32.9228 46.9803 33.5904 46.488 34.0827C45.9957 34.575 45.328 34.8516 44.6318 34.8516Z" fill="#24B763"/>
</svg>
