<svg width="14" height="15" viewBox="0 0 14 15" fill="none" xmlns="http://www.w3.org/2000/svg">
<path fill-rule="evenodd" clip-rule="evenodd" d="M13.2427 5.68562H0.750425C0.473502 5.68562 0.258118 5.901 0.258118 6.17793V13.4087C0.258118 14.2087 0.904272 14.8548 1.70427 14.8548H12.2889C13.0889 14.8548 13.735 14.2087 13.735 13.4087V6.17793C13.735 5.901 13.5197 5.68562 13.2427 5.68562ZM4.59658 12.4241C4.59658 12.701 4.38119 12.9164 4.10427 12.9164H3.15043C2.8735 12.9164 2.65812 12.701 2.65812 12.4241V11.4702C2.65812 11.1933 2.8735 10.9779 3.15043 10.9779H4.10427C4.38119 10.9779 4.59658 11.1933 4.59658 11.4702V12.4241ZM7.95043 12.4241C7.95043 12.701 7.73504 12.9164 7.45812 12.9164H6.50427C6.22735 12.9164 6.01196 12.701 6.01196 12.4241V11.4702C6.01196 11.1933 6.22735 10.9779 6.50427 10.9779H7.45812C7.73504 10.9779 7.95043 11.1933 7.95043 11.4702V12.4241ZM7.95043 9.07023C7.95043 9.34716 7.73504 9.56254 7.45812 9.56254H6.50427C6.22735 9.56254 6.01196 9.34716 6.01196 9.07023V8.11639C6.01196 7.83946 6.22735 7.62408 6.50427 7.62408H7.45812C7.73504 7.62408 7.95043 7.83946 7.95043 8.11639V9.07023ZM11.335 9.07023C11.335 9.34716 11.1197 9.56254 10.8427 9.56254H9.88889C9.61196 9.56254 9.39658 9.34716 9.39658 9.07023V8.11639C9.39658 7.83946 9.61196 7.62408 9.88889 7.62408H10.8427C11.1197 7.62408 11.335 7.83946 11.335 8.11639V9.07023ZM12.2889 1.83946H11.0889V1.34716C11.0889 0.82408 10.6581 0.393311 10.135 0.393311C9.61196 0.393311 9.18119 0.82408 9.18119 1.34716V1.83946H4.84273V1.34716C4.84273 0.82408 4.41196 0.393311 3.88889 0.393311C3.36581 0.393311 2.93504 0.82408 2.93504 1.34716V1.83946H1.70427C0.904271 1.83946 0.258118 2.48562 0.258118 3.28562V3.77793C0.258118 4.05485 0.473502 4.27023 0.750425 4.27023H13.2735C13.5504 4.27023 13.7658 4.05485 13.7658 3.77793V3.28562C13.735 2.48562 13.0889 1.83946 12.2889 1.83946Z" fill="#797979"/>
</svg>
