<svg width="21" height="23" viewBox="0 0 21 23" fill="none" xmlns="http://www.w3.org/2000/svg">
<path fill-rule="evenodd" clip-rule="evenodd" d="M20.0236 8.54833H1.28509C0.869708 8.54833 0.546631 8.8714 0.546631 9.28679V20.1329C0.546631 21.3329 1.51586 22.3022 2.71586 22.3022H18.5928C19.7928 22.3022 20.762 21.3329 20.762 20.1329V9.28679C20.762 8.8714 20.4389 8.54833 20.0236 8.54833ZM7.05432 18.656C7.05432 19.0714 6.73125 19.3945 6.31586 19.3945H4.88509C4.46971 19.3945 4.14663 19.0714 4.14663 18.656V17.2252C4.14663 16.8099 4.46971 16.4868 4.88509 16.4868H6.31586C6.73125 16.4868 7.05432 16.8099 7.05432 17.2252V18.656ZM12.0851 18.656C12.0851 19.0714 11.762 19.3945 11.3466 19.3945H9.91586C9.50048 19.3945 9.1774 19.0714 9.1774 18.656V17.2252C9.1774 16.8099 9.50048 16.4868 9.91586 16.4868H11.3466C11.762 16.4868 12.0851 16.8099 12.0851 17.2252V18.656ZM12.0851 13.6252C12.0851 14.0406 11.762 14.3637 11.3466 14.3637H9.91586C9.50048 14.3637 9.1774 14.0406 9.1774 13.6252V12.1945C9.1774 11.7791 9.50048 11.456 9.91586 11.456H11.3466C11.762 11.456 12.0851 11.7791 12.0851 12.1945V13.6252ZM17.162 13.6252C17.162 14.0406 16.8389 14.3637 16.4236 14.3637H14.9928C14.5774 14.3637 14.2543 14.0406 14.2543 13.6252V12.1945C14.2543 11.7791 14.5774 11.456 14.9928 11.456H16.4236C16.8389 11.456 17.162 11.7791 17.162 12.1945V13.6252ZM18.5928 2.77909H16.7928V2.04063C16.7928 1.25602 16.1466 0.609863 15.362 0.609863C14.5774 0.609863 13.9312 1.25602 13.9312 2.04063V2.77909H7.42355V2.04063C7.42355 1.25602 6.7774 0.609863 5.99278 0.609863C5.20817 0.609863 4.56202 1.25602 4.56202 2.04063V2.77909H2.71586C1.51586 2.77909 0.546631 3.74832 0.546631 4.94832V5.68679C0.546631 6.10217 0.869708 6.42525 1.28509 6.42525H20.0697C20.4851 6.42525 20.8082 6.10217 20.8082 5.68679V4.94832C20.762 3.74832 19.7928 2.77909 18.5928 2.77909Z" fill="#24B763"/>
</svg>
