<svg width="23" height="24" viewBox="0 0 23 24" fill="none" xmlns="http://www.w3.org/2000/svg">
<path fill-rule="evenodd" clip-rule="evenodd" d="M21.6367 9.11998H1.459C1.01171 9.11998 0.663819 9.46787 0.663819 9.91516V21.5944C0.663819 22.8865 1.70749 23.9302 2.99966 23.9302H20.0961C21.3882 23.9302 22.4319 22.8865 22.4319 21.5944V9.91516C22.4319 9.46787 22.084 9.11998 21.6367 9.11998ZM7.67135 20.004C7.67135 20.4513 7.32346 20.7992 6.87617 20.7992H5.33551C4.88822 20.7992 4.54033 20.4513 4.54033 20.004V18.4634C4.54033 18.0161 4.88822 17.6682 5.33551 17.6682H6.87617C7.32346 17.6682 7.67135 18.0161 7.67135 18.4634V20.004ZM13.0885 20.004C13.0885 20.4513 12.7406 20.7992 12.2933 20.7992H10.7527C10.3054 20.7992 9.9575 20.4513 9.9575 20.004V18.4634C9.9575 18.0161 10.3054 17.6682 10.7527 17.6682H12.2933C12.7406 17.6682 13.0885 18.0161 13.0885 18.4634V20.004ZM13.0885 14.5868C13.0885 15.0341 12.7406 15.382 12.2933 15.382H10.7527C10.3054 15.382 9.9575 15.0341 9.9575 14.5868V13.0462C9.9575 12.5989 10.3054 12.251 10.7527 12.251H12.2933C12.7406 12.251 13.0885 12.5989 13.0885 13.0462V14.5868ZM18.5554 14.5868C18.5554 15.0341 18.2075 15.382 17.7602 15.382H16.2195C15.7723 15.382 15.4244 15.0341 15.4244 14.5868V13.0462C15.4244 12.5989 15.7723 12.251 16.2195 12.251H17.7602C18.2075 12.251 18.5554 12.5989 18.5554 13.0462V14.5868ZM20.0961 2.90762H18.1578V2.11244C18.1578 1.26756 17.462 0.571777 16.6171 0.571777C15.7723 0.571777 15.0765 1.26756 15.0765 2.11244V2.90762H8.06894V2.11244C8.06894 1.26756 7.37316 0.571777 6.52828 0.571777C5.6834 0.571777 4.98762 1.26756 4.98762 2.11244V2.90762H2.99966C1.70749 2.90762 0.663818 3.9513 0.663818 5.24347V6.03865C0.663818 6.48594 1.01171 6.83383 1.459 6.83383H21.6864C22.1337 6.83383 22.4816 6.48594 22.4816 6.03865V5.24347C22.4319 3.9513 21.3882 2.90762 20.0961 2.90762Z" fill="#24B763"/>
</svg>
