<svg width="32" height="33" viewBox="0 0 32 33" fill="none" xmlns="http://www.w3.org/2000/svg">
<path d="M16.0068 32.3831C24.8434 32.3831 32.0068 25.2196 32.0068 16.3831C32.0068 7.5465 24.8434 0.383057 16.0068 0.383057C7.17028 0.383057 0.00683594 7.5465 0.00683594 16.3831C0.00683594 25.2196 7.17028 32.3831 16.0068 32.3831Z" fill="#E24C4B"/>
<path d="M32.0069 16.3832C32.0069 25.1832 24.8069 32.3832 16.0069 32.3832C10.9069 32.3832 6.40693 30.0832 3.5069 26.3833C6.20689 28.5833 9.7069 29.8833 13.5069 29.8833C22.3069 29.8833 29.5069 22.6833 29.5069 13.8833C29.5069 10.0833 28.2069 6.5833 26.0069 3.8833C29.7069 6.78319 32.0069 11.2832 32.0069 16.3832Z" fill="#D1403F"/>
<path d="M23.3069 23.6832C22.707 24.2832 21.7069 24.2832 21.1069 23.6832L16.007 18.5833L10.907 23.6832C10.307 24.2832 9.30698 24.2832 8.707 23.6832C8.10703 23.0832 8.10703 22.0832 8.707 21.4832L13.807 16.3833L8.707 11.2833C8.10703 10.6833 8.10703 9.68326 8.707 9.08328C9.30698 8.48331 10.307 8.48331 10.907 9.08328L16.007 14.1832L21.1069 9.08328C21.7069 8.48331 22.707 8.48331 23.3069 9.08328C23.9069 9.68326 23.9069 10.6833 23.3069 11.2833L18.207 16.3833L23.3069 21.4832C23.9069 22.0832 23.9069 23.0832 23.3069 23.6832Z" fill="white"/>
</svg>
