<svg width="32" height="33" viewBox="0 0 32 33" fill="none" xmlns="http://www.w3.org/2000/svg">
<path d="M30.453 8.68902L13.598 28.9136C13.5404 28.9826 13.4694 29.0391 13.3893 29.08C13.3093 29.1208 13.2218 29.1451 13.1322 29.1513C13.0425 29.1576 12.9525 29.1457 12.8676 29.1163C12.7827 29.0869 12.7046 29.0407 12.6379 28.9804L1.62563 19.0711C1.55966 19.0117 1.50619 18.9398 1.46834 18.8596C1.43048 18.7793 1.40899 18.6923 1.40514 18.6037C1.40129 18.5151 1.41514 18.4265 1.44589 18.3433C1.47664 18.2601 1.52367 18.1838 1.58423 18.119L5.17555 14.2746C5.29373 14.1481 5.45643 14.0725 5.62932 14.0636C5.80221 14.0548 5.97178 14.1134 6.10225 14.2272L12.2407 19.5805L26.0905 3.83984C26.154 3.7677 26.2323 3.71012 26.3201 3.67102C26.4079 3.63193 26.5031 3.61225 26.5992 3.61332C26.6953 3.6144 26.79 3.63621 26.8769 3.67726C26.9638 3.71832 27.0408 3.77765 27.1027 3.85119L30.453 7.83175C30.5536 7.95192 30.6087 8.10366 30.6087 8.26039C30.6087 8.41712 30.5536 8.56886 30.453 8.68902Z" fill="#24B763"/>
</svg>
