<svg width="15" height="15" viewBox="0 0 15 15" fill="none" xmlns="http://www.w3.org/2000/svg">
<path d="M8.64944 7.72552L14.5088 0.741141C14.607 0.62507 14.5244 0.44873 14.3727 0.44873H12.5914C12.4865 0.44873 12.386 0.495605 12.3168 0.575963L7.48426 6.33712L2.65167 0.575963C2.5847 0.495605 2.48426 0.44873 2.37711 0.44873H0.595865C0.444079 0.44873 0.361489 0.62507 0.459704 0.741141L6.31908 7.72552L0.459704 14.7099C0.437703 14.7358 0.423588 14.7674 0.419036 14.8011C0.414483 14.8347 0.419683 14.869 0.434019 14.8998C0.448355 14.9305 0.471226 14.9566 0.499914 14.9748C0.528602 14.9929 0.561903 15.0025 0.595865 15.0023H2.37711C2.48203 15.0023 2.58247 14.9554 2.65167 14.8751L7.48426 9.11391L12.3168 14.8751C12.3838 14.9554 12.4843 15.0023 12.5914 15.0023H14.3727C14.5244 15.0023 14.607 14.826 14.5088 14.7099L8.64944 7.72552Z" fill="white"/>
</svg>
