<svg width="58" height="59" viewBox="0 0 58 59" fill="none" xmlns="http://www.w3.org/2000/svg">
<path d="M28.9902 0.351562C23.2793 0.351562 17.6966 2.04505 12.9482 5.21788C8.19969 8.3907 4.49871 12.9004 2.31323 18.1766C0.127746 23.4528 -0.444076 29.2586 0.670072 34.8598C1.78422 40.461 4.5343 45.606 8.57254 49.6443C12.6108 53.6825 17.7558 56.4326 23.357 57.5467C28.9582 58.6609 34.764 58.0891 40.0402 55.9036C45.3165 53.7181 49.8261 50.0171 52.9989 45.2687C56.1718 40.5202 57.8653 34.9375 57.8653 29.2266C57.8562 21.5712 54.8111 14.232 49.398 8.81883C43.9848 3.40567 36.6456 0.360594 28.9902 0.351562ZM42.1153 31.8516H31.6152V42.3516C31.6152 43.0478 31.3387 43.7154 30.8464 44.2077C30.3541 44.7 29.6864 44.9766 28.9902 44.9766C28.2941 44.9766 27.6264 44.7 27.1341 44.2077C26.6418 43.7154 26.3652 43.0478 26.3652 42.3516V31.8516H15.8652C15.1691 31.8516 14.5014 31.575 14.0091 31.0827C13.5168 30.5904 13.2402 29.9228 13.2402 29.2266C13.2402 28.5304 13.5168 27.8627 14.0091 27.3704C14.5014 26.8781 15.1691 26.6016 15.8652 26.6016H26.3652V16.1016C26.3652 15.4054 26.6418 14.7377 27.1341 14.2454C27.6264 13.7531 28.2941 13.4766 28.9902 13.4766C29.6864 13.4766 30.3541 13.7531 30.8464 14.2454C31.3387 14.7377 31.6152 15.4054 31.6152 16.1016V26.6016H42.1153C42.8114 26.6016 43.4791 26.8781 43.9714 27.3704C44.4637 27.8627 44.7403 28.5304 44.7403 29.2266C44.7403 29.9228 44.4637 30.5904 43.9714 31.0827C43.4791 31.575 42.8114 31.8516 42.1153 31.8516Z" fill="#24B763"/>
</svg>
