<svg width="21" height="21" viewBox="0 0 21 21" fill="none" xmlns="http://www.w3.org/2000/svg">
<path fill-rule="evenodd" clip-rule="evenodd" d="M18.4868 4.73244H13.6791V3.19398C13.6791 2.34783 12.9868 1.65552 12.1407 1.65552H9.83299C8.98684 1.65552 8.29453 2.34783 8.29453 3.19398V4.73244H3.48684C3.17914 4.73244 2.90991 5.00167 2.90991 5.30936V6.46321C2.90991 6.7709 3.17914 7.04013 3.48684 7.04013H18.4868C18.7945 7.04013 19.0638 6.7709 19.0638 6.46321V5.30936C19.0638 5.00167 18.7945 4.73244 18.4868 4.73244ZM9.83299 3.57859C9.83299 3.34783 9.98684 3.19398 10.2176 3.19398H11.7561C11.9868 3.19398 12.1407 3.34783 12.1407 3.57859V4.73244H9.83299V3.57859ZM16.9484 8.57859H5.0253C4.7176 8.57859 4.44837 8.84783 4.44837 9.15552V18.194C4.44837 19.2709 5.29453 20.1171 6.37145 20.1171H15.6022C16.6791 20.1171 17.5253 19.2709 17.5253 18.194V9.15552C17.5253 8.84783 17.2561 8.57859 16.9484 8.57859ZM9.83299 17.0401C9.83299 17.2709 9.67914 17.4247 9.44837 17.4247H8.67914C8.44837 17.4247 8.29453 17.2709 8.29453 17.0401V11.6555C8.29453 11.4247 8.44837 11.2709 8.67914 11.2709H9.44837C9.67914 11.2709 9.83299 11.4247 9.83299 11.6555V17.0401ZM13.6791 17.0401C13.6791 17.2709 13.5253 17.4247 13.2945 17.4247H12.5253C12.2945 17.4247 12.1407 17.2709 12.1407 17.0401V11.6555C12.1407 11.4247 12.2945 11.2709 12.5253 11.2709H13.2945C13.5253 11.2709 13.6791 11.4247 13.6791 11.6555V17.0401Z" fill="#D80404"/>
</svg>
