<svg width="15" height="13" viewBox="0 0 15 13" fill="none" xmlns="http://www.w3.org/2000/svg">
<path fill-rule="evenodd" clip-rule="evenodd" d="M7.21404 7.8201C7.39865 8.00471 7.67558 8.00471 7.86019 7.8201L14.814 1.35856C14.9371 1.1124 14.9063 0.712402 14.414 0.712402L0.660191 0.743172C0.29096 0.743172 -0.016732 1.08163 0.260191 1.38933L7.21404 7.8201ZM14.9371 3.88163C14.9371 3.57394 14.5679 3.38933 14.3217 3.60471L8.87558 8.62009C8.50634 8.95856 8.04481 9.14317 7.5525 9.14317C7.06019 9.14317 6.59865 8.95856 6.22942 8.65086L0.814037 3.60471C0.567883 3.38933 0.198653 3.54317 0.198653 3.88163C0.167883 3.78932 0.167883 10.8662 0.167883 10.8662C0.167883 11.5432 0.72173 12.097 1.39865 12.097H13.7063C14.3833 12.097 14.9371 11.5432 14.9371 10.8662V3.88163Z" fill="#797979"/>
</svg>
