<svg width="94" height="93" viewBox="0 0 94 93" fill="none" xmlns="http://www.w3.org/2000/svg">
<path d="M6.43037 88.5121H43.1222L42.6872 87.932C40.5118 85.1765 36.8861 82.711 31.5201 80.2455C26.0648 77.7302 20.1239 76.443 14.1168 76.4748L8.60578 76.9099L6.72043 77.2L4.9801 77.6351V87.0618C4.9801 87.4465 5.1329 87.8153 5.40488 88.0873C5.67686 88.3593 6.04574 88.5121 6.43037 88.5121Z" fill="#24B763"/>
<path d="M8.1707 74.0094L14.2618 73.5743C20.6718 73.5578 27.0077 74.9438 32.8253 77.6351C38.6264 80.3906 42.5421 83.0011 45.0076 86.1917L46.4579 88.5121H61.9758L61.5407 87.787C55.7648 78.6819 47.4448 71.4712 37.6112 67.0481C26.5891 61.9721 14.8419 60.0868 7.01048 62.1172L4.9801 62.8423V74.4445L6.28535 74.1544L8.1707 74.0094Z" fill="#24B763"/>
<path d="M38.9165 64.4373C49.2264 69.1494 57.9436 76.758 64.0062 86.3364L65.3114 88.6568H79.089C79.3278 88.6529 79.5619 88.5901 79.7705 88.4739C79.9792 88.3578 80.1559 88.1919 80.2851 87.991C80.4142 87.7901 80.4917 87.5605 80.5108 87.3224C80.5298 87.0844 80.4898 86.8453 80.3942 86.6264C72.9725 71.1806 60.4838 58.7431 45.0076 51.3849C38.751 48.4705 25.2839 45.4387 25.2839 45.4387C25.2839 45.4387 11.6465 44.53 6.28537 45.0037C5.92639 45.0397 5.59375 45.2083 5.3524 45.4765C5.11104 45.7446 4.97831 46.0931 4.98012 46.4539V59.6514L6.28537 59.2163C14.842 57.0409 27.0243 58.9263 38.9165 64.4373ZM67.1968 63.2771C70.4972 66.5369 73.506 70.0794 76.1885 73.8641C79.3806 73.6335 82.5879 73.7307 85.7603 74.1541L87.9357 74.4442H88.0807L89.2409 74.7342V62.5519L87.3556 62.2619C80.6273 61.4461 73.809 61.7895 67.1968 63.2771ZM87.9357 45.1487C75.0885 43.7131 62.0892 45.6629 50.2286 50.8047C55.3983 53.6104 60.2177 57.0181 64.5863 60.9566C72.1515 58.9675 80.0244 58.4263 87.7906 59.3613L89.2409 59.6514V46.599C89.2427 46.2382 89.11 45.8897 88.8686 45.6215C88.6273 45.3533 88.2946 45.1848 87.9357 45.1487ZM85.4702 76.9096C83.0173 76.6051 80.543 76.5081 78.0738 76.6196C79.8932 79.3668 81.5401 82.2245 83.0047 85.1762C83.2474 85.6952 83.3851 86.2571 83.41 86.8295C83.4348 87.4019 83.3464 87.9736 83.1498 88.5118H87.7906C88.1753 88.5118 88.5442 88.359 88.8161 88.087C89.0881 87.8151 89.2409 87.4462 89.2409 87.0615V77.6348L87.5006 77.1997L85.4702 76.9096ZM56.6098 36.012L60.0904 33.5465V44.4235L67.3418 42.8282V35.5769C67.3418 35.3846 67.4182 35.2001 67.5542 35.0641C67.6902 34.9282 67.8746 34.8518 68.0669 34.8518H75.3183C75.5106 34.8518 75.6951 34.9282 75.831 35.0641C75.967 35.2001 76.0434 35.3846 76.0434 35.5769V41.8131H83.2948V33.5465L86.7754 36.157L87.6456 36.4471C87.95 36.4471 88.2467 36.3513 88.4936 36.1733C88.7405 35.9953 88.9252 35.7442 89.0215 35.4554C89.1177 35.1666 89.1207 34.8549 89.0299 34.5644C88.9392 34.2738 88.7593 34.0192 88.5158 33.8366L72.5628 22.2344C72.3117 22.0461 72.0064 21.9443 71.6926 21.9443C71.3788 21.9443 71.0735 22.0461 70.8225 22.2344L54.8695 33.8366C54.5618 34.0673 54.3583 34.4109 54.3039 34.7917C54.2495 35.1725 54.3486 35.5592 54.5794 35.8669C54.8102 36.1747 55.1538 36.3781 55.5345 36.4325C55.9153 36.4869 56.3021 36.3878 56.6098 36.157V36.012Z" fill="#24B763"/>
</svg>
