<svg width="24" height="24" viewBox="0 0 24 24" fill="none" xmlns="http://www.w3.org/2000/svg">
<path fill-rule="evenodd" clip-rule="evenodd" d="M22.6043 12.6423C22.6043 11.8272 22.5311 11.0434 22.3953 10.291H11.5691V14.7375H17.7555C17.489 16.1744 16.6791 17.3918 15.4617 18.2069V21.0911H19.1767C21.3503 19.0899 22.6043 16.143 22.6043 12.6423Z" fill="#4285F4"/>
<path fill-rule="evenodd" clip-rule="evenodd" d="M11.569 23.8761C14.6726 23.8761 17.2747 22.8468 19.1766 21.0912L15.4616 18.207C14.4323 18.8967 13.1156 19.3043 11.569 19.3043C8.57505 19.3043 6.04092 17.2822 5.137 14.5652H1.29663V17.5434C3.18808 21.3002 7.07547 23.8761 11.569 23.8761Z" fill="#34A853"/>
<path fill-rule="evenodd" clip-rule="evenodd" d="M5.13724 14.5653C4.90734 13.8756 4.77671 13.1389 4.77671 12.3813C4.77671 11.6237 4.90734 10.8869 5.13724 10.1972V7.21899H1.29687C0.518343 8.77082 0.0742188 10.5264 0.0742188 12.3813C0.0742188 14.2362 0.518343 15.9918 1.29687 17.5436L5.13724 14.5653Z" fill="#FBBC05"/>
<path fill-rule="evenodd" clip-rule="evenodd" d="M11.569 5.4581C13.2566 5.4581 14.7719 6.03807 15.9632 7.17712L19.2602 3.88015C17.2694 2.02528 14.6674 0.88623 11.569 0.88623C7.07547 0.88623 3.18808 3.46215 1.29663 7.21892L5.137 10.1972C6.04092 7.48017 8.57505 5.4581 11.569 5.4581Z" fill="#EA4335"/>
</svg>
