<svg width="15" height="15" viewBox="0 0 15 15" fill="none" xmlns="http://www.w3.org/2000/svg">
<path d="M7.48549 8.78219C7.8916 8.78219 8.28108 8.62086 8.56825 8.33369C8.85541 8.04653 9.01674 7.65705 9.01674 7.25094C9.01674 7.20609 9.01469 7.16166 9.01086 7.11777L7.35233 8.77631C7.39621 8.78014 7.44051 8.78219 7.48549 8.78219ZM12.5539 2.51445L11.9699 1.93094C11.9494 1.91044 11.9215 1.89893 11.8926 1.89893C11.8636 1.89893 11.8357 1.91044 11.8152 1.93094L10.3206 3.42596C9.49612 3.00459 8.56931 2.7939 7.54018 2.7939C4.91244 2.7939 2.9519 4.16246 1.65854 6.89957C1.60655 7.00965 1.57959 7.12988 1.57959 7.25162C1.57959 7.37336 1.60655 7.49359 1.65854 7.60367C2.17534 8.69222 2.79763 9.56472 3.52543 10.2212L2.07909 11.667C2.05859 11.6875 2.04708 11.7153 2.04708 11.7443C2.04708 11.7733 2.05859 11.8011 2.07909 11.8216L2.66274 12.4052C2.68325 12.4257 2.71106 12.4372 2.74005 12.4372C2.76905 12.4372 2.79686 12.4257 2.81737 12.4052L12.5539 2.66922C12.5641 2.65906 12.5722 2.647 12.5777 2.63372C12.5832 2.62044 12.586 2.60621 12.586 2.59183C12.586 2.57746 12.5832 2.56323 12.5777 2.54995C12.5722 2.53667 12.5641 2.52461 12.5539 2.51445ZM5.07924 7.25094C5.0792 6.83532 5.18682 6.42678 5.3916 6.06511C5.59638 5.70345 5.89135 5.40099 6.24777 5.18721C6.60419 4.97342 7.0099 4.8556 7.42539 4.84522C7.84087 4.83484 8.25197 4.93225 8.61862 5.12797L7.95389 5.79269C7.68581 5.70686 7.39927 5.69652 7.1257 5.76281C6.85214 5.82911 6.60212 5.96948 6.40308 6.16852C6.20404 6.36756 6.06367 6.61758 5.99737 6.89115C5.93107 7.16471 5.94141 7.45126 6.02725 7.71933L5.36252 8.38406C5.17598 8.03554 5.07866 7.64624 5.07924 7.25094Z" fill="#D2D2D2"/>
<path d="M13.4214 6.89834C12.9402 5.8848 12.3674 5.05833 11.703 4.41895L9.73237 6.38975C9.89849 6.82398 9.93531 7.29704 9.83838 7.75175C9.74146 8.20646 9.51493 8.62338 9.18618 8.95213C8.85743 9.28089 8.44051 9.50741 7.9858 9.60433C7.53108 9.70126 7.05803 9.66444 6.62379 9.49832L4.95227 11.1698C5.72774 11.5287 6.59025 11.7081 7.53981 11.7081C10.1675 11.7081 12.1281 10.3396 13.4214 7.60244C13.4734 7.49236 13.5004 7.37213 13.5004 7.25039C13.5004 7.12865 13.4734 7.00842 13.4214 6.89834Z" fill="#D2D2D2"/>
</svg>
