<svg width="13" height="16" viewBox="0 0 13 16" fill="none" xmlns="http://www.w3.org/2000/svg">
<path fill-rule="evenodd" clip-rule="evenodd" d="M1.92274 6.10181H3.15351C3.33812 6.10181 3.4612 6.0095 3.4612 5.82488V5.79412C3.4612 4.04027 4.96889 2.59412 6.75351 2.71719C8.38428 2.84027 9.61505 4.25565 9.61505 5.91719V5.82488C9.61505 6.0095 9.73812 6.10181 9.92274 6.10181H11.1535C11.3381 6.10181 11.4612 6.0095 11.4612 5.82488V5.79412C11.4612 2.99412 9.12274 0.747962 6.29197 0.871038C3.67658 0.994115 1.67659 3.2095 1.61505 5.82488C1.64582 5.97873 1.76889 6.10181 1.92274 6.10181ZM1.61505 5.82488V5.94796V5.82488ZM12.692 8.56335C12.692 7.88642 12.1381 7.33258 11.4612 7.33258H1.61505C0.938123 7.33258 0.384277 7.88642 0.384277 8.56335V14.4095C0.384277 15.0864 0.938123 15.6403 1.61505 15.6403H11.4612C12.1381 15.6403 12.692 15.0864 12.692 14.4095V8.56335ZM7.95351 13.3941C8.01505 13.5787 7.8612 13.7941 7.64582 13.7941H5.39966C5.18428 13.7941 5.0612 13.6095 5.09197 13.3941L5.64582 11.548C5.18428 11.2403 4.90735 10.6864 4.99966 10.071C5.12274 9.48642 5.58428 9.02488 6.19966 8.90181C7.18428 8.71719 8.04582 9.42488 8.04582 10.348C8.04582 10.8403 7.79966 11.3018 7.39966 11.548L7.95351 13.3941Z" fill="#797979"/>
</svg>
