<svg width="18" height="17" viewBox="0 0 18 17" fill="none" xmlns="http://www.w3.org/2000/svg">
<path d="M16.0039 3.78068H2.0909C1.30829 3.78068 0.677856 3.15024 0.677856 2.36763C0.677856 1.58502 1.30829 0.95459 2.0909 0.95459H16.0039C16.7866 0.95459 17.417 1.58502 17.417 2.36763C17.417 3.15024 16.7866 3.78068 16.0039 3.78068ZM17.417 8.67198C17.417 7.88937 16.7866 7.25894 16.0039 7.25894H2.0909C1.30829 7.25894 0.677856 7.88937 0.677856 8.67198C0.677856 9.45459 1.30829 10.085 2.0909 10.085H16.0039C16.7866 10.085 17.417 9.45459 17.417 8.67198ZM17.417 14.9763C17.417 14.1937 16.7866 13.5633 16.0039 13.5633H2.0909C1.30829 13.5633 0.677856 14.1937 0.677856 14.9763C0.677856 15.7589 1.30829 16.3894 2.0909 16.3894H16.0039C16.7866 16.3894 17.417 15.7589 17.417 14.9763Z" fill="#24B763"/>
</svg>
