<svg width="25" height="25" viewBox="0 0 25 25" fill="none" xmlns="http://www.w3.org/2000/svg">
<path d="M4.24356 4.36928H3.59662C3.2408 4.36928 2.91733 4.53101 2.6909 4.75744C2.43212 4.98387 2.30273 5.30734 2.30273 5.66316C2.30273 6.3748 2.88498 6.95705 3.59662 6.95705H4.24356V8.89787H3.59662C3.2408 8.89787 2.91733 9.05961 2.6909 9.28604C2.43212 9.51247 2.30273 9.83594 2.30273 10.1918C2.30273 10.9034 2.88498 11.4856 3.59662 11.4856H4.24356V13.4265H3.59662C3.2408 13.4265 2.91733 13.5559 2.6909 13.8146C2.43212 14.0411 2.30273 14.3645 2.30273 14.7204C2.30273 15.432 2.88498 16.0142 3.59662 16.0142H4.24356V17.9551H3.59662C3.2408 17.9551 2.91733 18.1168 2.6909 18.3432C2.43212 18.5697 2.30273 18.8931 2.30273 19.2489C2.30273 19.9606 2.88498 20.5428 3.59662 20.5428H4.24356V22.8071H23.0049V2.10498H4.24356V4.36928ZM5.53745 19.8959H4.24356H3.59662C3.2408 19.8959 2.94968 19.6048 2.94968 19.2489C2.94968 18.8931 3.2408 18.602 3.59662 18.602H4.24356H5.53745C5.89326 18.602 6.18439 18.8931 6.18439 19.2489C6.18439 19.6048 5.89326 19.8959 5.53745 19.8959ZM5.53745 15.3673H4.24356H3.59662C3.2408 15.3673 2.94968 15.0762 2.94968 14.7204C2.94968 14.3645 3.2408 14.0734 3.59662 14.0734H4.24356H5.53745C5.89326 14.0734 6.18439 14.3645 6.18439 14.7204C6.18439 15.0762 5.89326 15.3673 5.53745 15.3673ZM5.53745 10.8387H4.24356H3.59662C3.2408 10.8387 2.94968 10.5476 2.94968 10.1918C2.94968 9.83594 3.2408 9.54482 3.59662 9.54482H4.24356H5.53745C5.89326 9.54482 6.18439 9.83594 6.18439 10.1918C6.18439 10.5476 5.89326 10.8387 5.53745 10.8387ZM19.1232 16.3377H10.066V15.0438H19.1232V16.3377ZM19.1232 13.103H10.066V11.8091H19.1232V13.103ZM9.4191 4.69275H19.7702V8.89787H9.4191V4.69275ZM6.18439 5.66316C6.18439 6.01898 5.89326 6.3101 5.53745 6.3101H4.24356H3.59662C3.2408 6.3101 2.94968 6.01898 2.94968 5.66316C2.94968 5.30734 3.2408 5.01622 3.59662 5.01622H4.24356H5.53745C5.89326 5.01622 6.18439 5.30734 6.18439 5.66316Z" fill="#797979"/>
</svg>
