<svg width="25" height="25" viewBox="0 0 25 25" fill="none" xmlns="http://www.w3.org/2000/svg">
<path fill-rule="evenodd" clip-rule="evenodd" d="M21.5802 16.1147H21.3494C20.4725 16.1147 19.734 15.3763 19.734 14.4994V9.19166C19.734 4.99166 16.2263 1.62243 11.9802 1.80705C8.01092 1.99166 4.96477 5.40705 4.96477 9.42243V14.5455C4.96477 15.4224 4.22631 16.1147 3.34938 16.1147H3.11861C2.10323 16.1147 1.27246 16.9917 1.27246 18.007V18.6994C1.27246 19.0224 1.59554 19.3455 1.96477 19.3455H22.734C23.1032 19.3455 23.4263 19.0224 23.4263 18.6532V17.9609C23.4263 16.9455 22.5955 16.1147 21.5802 16.1147ZM14.6108 21.1915H10.0878C9.81085 21.1915 9.58008 21.4684 9.62623 21.7454C9.857 23.0377 11.0108 23.9608 12.3493 23.9608C13.6878 23.9608 14.8416 22.9915 15.0724 21.7454C15.1185 21.4684 14.8878 21.1915 14.6108 21.1915Z" fill="#24B763"/>
</svg>
