<svg width="285" height="285" viewBox="0 0 285 285" fill="none" xmlns="http://www.w3.org/2000/svg">
<circle opacity="0.3" cx="142.5" cy="142.5" r="126.141" fill="#F1F9ED"/>
<circle opacity="0.3" cx="142.5" cy="142.5" r="142.5" fill="#F1F9ED"/>
<path d="M142.5 219.75C183.507 219.75 216.75 186.507 216.75 145.5C216.75 104.493 183.507 71.25 142.5 71.25C101.493 71.25 68.25 104.493 68.25 145.5C68.25 186.507 101.493 219.75 142.5 219.75Z" fill="url(#paint0_linear_93_1057)"/>
<path d="M188.795 148.594C189.224 148.597 189.647 148.688 190.039 148.862C190.432 149.035 190.784 149.288 191.074 149.604C191.364 149.92 191.586 150.292 191.726 150.697C191.867 151.102 191.922 151.532 191.889 151.96C191.047 164.485 185.478 176.223 176.308 184.797C167.139 193.371 155.054 198.141 142.5 198.141C129.946 198.141 117.861 193.371 108.692 184.797C99.5223 176.223 93.953 164.485 93.1114 151.96C93.0783 151.532 93.1335 151.102 93.2737 150.697C93.4139 150.292 93.636 149.92 93.9262 149.604C94.2164 149.288 94.5685 149.035 94.9606 148.862C95.3526 148.688 95.7763 148.597 96.2051 148.594H188.795Z" fill="url(#paint1_linear_93_1057)"/>
<path d="M173.438 148.594C173.438 157.136 159.587 164.062 142.5 164.062C125.413 164.062 111.562 157.136 111.562 148.594H173.438Z" fill="#F8FAFB"/>
<path d="M99.0607 74.7146L109.598 87.7084C109.882 88.0585 110.239 88.3424 110.644 88.5401C111.049 88.7378 111.492 88.8446 111.943 88.8531L128.649 89.1625C129.201 89.1724 129.74 89.3298 130.211 89.6183C130.681 89.9068 131.066 90.3159 131.325 90.8032C131.584 91.2905 131.708 91.8383 131.685 92.3897C131.661 92.9412 131.49 93.4761 131.189 93.9392L122.094 107.976C121.848 108.354 121.689 108.781 121.625 109.227C121.562 109.673 121.598 110.128 121.729 110.559L126.604 126.557C126.765 127.084 126.782 127.645 126.653 128.182C126.524 128.718 126.254 129.21 125.871 129.607C125.488 130.004 125.006 130.292 124.474 130.44C123.943 130.588 123.382 130.591 122.849 130.449L106.705 126.127C106.27 126.01 105.814 125.99 105.37 126.068C104.926 126.146 104.504 126.32 104.134 126.578L90.426 136.169C89.9736 136.485 89.4448 136.675 88.8943 136.718C88.3438 136.762 87.7918 136.657 87.2956 136.415C86.7993 136.173 86.3769 135.802 86.0722 135.342C85.7675 134.881 85.5915 134.347 85.5627 133.796L84.6717 117.09C84.6463 116.638 84.5223 116.198 84.3085 115.8C84.0947 115.402 83.7963 115.055 83.4342 114.785L70.1063 104.705C69.6654 104.373 69.3214 103.929 69.1101 103.419C68.8988 102.909 68.8278 102.352 68.9045 101.805C68.9812 101.258 69.2028 100.742 69.5463 100.31C69.8899 99.8776 70.3428 99.5452 70.8581 99.3471L86.466 93.3421C86.8868 93.1801 87.2671 92.9281 87.5802 92.6037C87.8934 92.2793 88.1319 91.8904 88.279 91.4642L93.7394 75.6551C93.9199 75.1347 94.2361 74.6719 94.6553 74.3146C95.0745 73.9572 95.5815 73.7183 96.1239 73.6224C96.6663 73.5265 97.2245 73.5772 97.7408 73.7692C98.2571 73.9613 98.7127 74.2876 99.0607 74.7146Z" fill="#FA9200"/>
<path d="M185.386 74.7149L174.848 87.7086C174.564 88.0587 174.207 88.3426 173.802 88.5403C173.397 88.738 172.954 88.8449 172.503 88.8533L155.778 89.1627C155.227 89.1731 154.688 89.3309 154.218 89.6196C153.748 89.9084 153.364 90.3175 153.105 90.8048C152.846 91.292 152.722 91.8396 152.746 92.3907C152.77 92.9419 152.941 93.4766 153.242 93.9394L162.337 107.976C162.582 108.354 162.741 108.781 162.804 109.227C162.866 109.674 162.831 110.128 162.699 110.559L157.823 126.557C157.662 127.085 157.645 127.646 157.774 128.183C157.903 128.72 158.174 129.212 158.557 129.609C158.941 130.007 159.423 130.294 159.955 130.441C160.487 130.589 161.049 130.592 161.582 130.449L177.741 126.136C178.177 126.019 178.632 125.999 179.076 126.078C179.521 126.156 179.942 126.33 180.312 126.588L194.02 136.178C194.473 136.494 195.001 136.683 195.551 136.726C196.101 136.769 196.653 136.664 197.149 136.422C197.644 136.18 198.066 135.809 198.371 135.349C198.675 134.889 198.851 134.356 198.881 133.805L199.772 117.099C199.797 116.648 199.921 116.208 200.135 115.81C200.349 115.411 200.647 115.065 201.009 114.794L214.359 104.718C214.799 104.386 215.143 103.941 215.354 103.431C215.565 102.921 215.636 102.363 215.559 101.817C215.482 101.27 215.26 100.754 214.916 100.322C214.572 99.8896 214.119 99.5575 213.604 99.3597L197.996 93.3547C197.575 93.1927 197.195 92.9407 196.882 92.6163C196.568 92.2919 196.33 91.903 196.183 91.4768L190.725 75.6677C190.548 75.1424 190.233 74.6744 189.813 74.3126C189.393 73.9508 188.883 73.7085 188.338 73.6111C187.792 73.5137 187.23 73.5648 186.711 73.7589C186.191 73.9531 185.734 74.2833 185.386 74.7149Z" fill="#FA9200"/>
<defs>
<linearGradient id="paint0_linear_93_1057" x1="66.5701" y1="87.6067" x2="199.969" y2="189.32" gradientUnits="userSpaceOnUse">
<stop stop-color="#FFD764"/>
<stop offset="0.336" stop-color="#FFD261"/>
<stop offset="0.717" stop-color="#FFC559"/>
<stop offset="0.976" stop-color="#FFB751"/>
</linearGradient>
<linearGradient id="paint1_linear_93_1057" x1="142.5" y1="148.594" x2="142.5" y2="198.094" gradientUnits="userSpaceOnUse">
<stop stop-color="#891B3B"/>
<stop offset="1" stop-color="#BC355B"/>
</linearGradient>
</defs>
</svg>
