<svg width="16" height="16" viewBox="0 0 16 16" fill="none" xmlns="http://www.w3.org/2000/svg">
<path fill-rule="evenodd" clip-rule="evenodd" d="M10.3415 12.0213C9.26658 12.808 7.94095 13.2725 6.50684 13.2725C2.91699 13.2725 0.00683594 10.3623 0.00683594 6.77246C0.00683594 3.18261 2.91699 0.272461 6.50684 0.272461C10.0967 0.272461 13.0068 3.18261 13.0068 6.77246C13.0068 8.20656 12.5424 9.53218 11.7557 10.6071L14.7177 13.5691C15.1082 13.9596 15.1082 14.5928 14.7177 14.9833C14.3272 15.3738 13.694 15.3738 13.3035 14.9833L10.3415 12.0213ZM11.0068 6.77246C11.0068 9.25774 8.99212 11.2725 6.50684 11.2725C4.02155 11.2725 2.00684 9.25774 2.00684 6.77246C2.00684 4.28718 4.02155 2.27246 6.50684 2.27246C8.99212 2.27246 11.0068 4.28718 11.0068 6.77246Z" fill="#797979"/>
</svg>
