<svg width="20" height="21" viewBox="0 0 20 21" fill="none" xmlns="http://www.w3.org/2000/svg">
<path fill-rule="evenodd" clip-rule="evenodd" d="M15.7595 13.2324C14.7595 13.2324 13.8749 13.6555 13.2595 14.3094L7.64414 11.5017C7.6826 11.3094 7.6826 11.1171 7.6826 10.8863C7.6826 10.694 7.64414 10.4632 7.64414 10.2709L13.2595 7.46321C13.8749 8.15552 14.798 8.57859 15.798 8.57859C17.7211 8.57859 19.2595 7.04013 19.2595 5.11706C19.2595 3.19398 17.7211 1.65552 15.798 1.65552C13.8749 1.65552 12.3364 3.19398 12.3364 5.11706V5.34783L6.52875 8.2709C5.87491 7.7709 5.10568 7.46321 4.22106 7.46321C2.29798 7.46321 0.759521 9.00167 0.759521 10.9247C0.759521 12.8478 2.29798 14.3863 4.22106 14.3863C5.10568 14.3863 5.87491 14.0786 6.49029 13.5401L12.298 16.4247V16.694C12.298 18.6171 13.8364 20.1555 15.7595 20.1555C17.6826 20.1555 19.2211 18.6171 19.2211 16.694C19.2211 14.7709 17.6826 13.2324 15.7595 13.2324Z" fill="#706E6B"/>
</svg>
