<svg width="66" height="65" viewBox="0 0 66 65" fill="none" xmlns="http://www.w3.org/2000/svg">
<g clip-path="url(#clip0_2_3835)">
<path d="M36.2494 26.9498C35.7604 27.4658 35.0692 27.7377 34.3582 27.6936C34.1123 27.6781 28.2663 27.2762 22.2869 24.0541C16.6365 21.0092 9.81788 14.8308 9.42195 2.68775C9.40018 2.02551 9.65371 1.38403 10.122 0.915452C10.8364 0.200684 11.6749 0.200684 12.0329 0.200684C12.0331 0.200684 12.0331 0.200684 12.0331 0.200684C12.2863 0.200684 18.2409 0.243466 24.3764 3.92236C27.5614 5.83225 30.2093 8.37122 32.2469 11.469C34.7083 15.2113 36.2703 19.7709 36.8895 25.0209C36.9727 25.7272 36.7382 26.4336 36.2494 26.9498Z" fill="#6DC82A"/>
<path d="M32.322 11.5879C31.3172 13.4422 30.4698 15.5307 29.8617 17.8835C29.3149 19.5165 28.4799 22.3857 27.7907 26.3555C31.4258 27.4932 34.1907 27.6833 34.3582 27.6938C35.0693 27.738 35.7604 27.4661 36.2493 26.9499C36.7382 26.4337 36.9727 25.7273 36.8893 25.0213C36.2765 19.826 34.739 15.3081 32.322 11.5879Z" fill="#5EAC24"/>
<path d="M34.1933 22.839L29.0305 17.8045L27.6691 11.0203C27.5614 10.4826 27.0382 10.1346 26.5004 10.2422C25.9627 10.3501 25.6147 10.8735 25.7224 11.4109L26.5128 15.3494L23.6655 12.5729L22.2854 5.69541C22.1776 5.15772 21.6543 4.81015 21.1167 4.91736C20.579 5.0252 20.2309 5.54846 20.3386 6.08602L21.1477 10.1177L14.5035 3.63908C14.1106 3.25631 13.4826 3.26442 13.0997 3.6568C12.7169 4.04943 12.7249 4.67788 13.1174 5.06051L20.4232 12.1847L15.3268 12.0976C14.7791 12.0826 14.3267 12.525 14.3172 13.0732C14.308 13.6214 14.7447 14.0733 15.2929 14.0828L22.4959 14.2059L25.8849 17.5108L20.7105 17.4226C20.1673 17.4104 19.7104 17.85 19.701 18.3982C19.6917 18.9464 20.1284 19.3983 20.6766 19.4078L27.9574 19.5321L32.8066 24.2607C32.9998 24.4489 33.2498 24.5425 33.4995 24.5425C33.7577 24.5425 34.0157 24.4423 34.2105 24.2428C34.5936 23.85 34.5858 23.2216 34.1933 22.839Z" fill="#4E901E"/>
<path d="M59.6539 0.949195C59.1649 0.433149 58.4737 0.161266 57.7627 0.205314C57.5168 0.220883 51.6708 0.622758 45.6914 3.84485C41.0966 6.32078 35.7298 10.8689 33.6717 19.0109C32.5476 22.3212 30.0712 31.2986 30.6504 44.8155C30.7005 45.9849 31.6643 46.8993 32.8237 46.8992C32.8551 46.8992 32.8867 46.8985 32.9185 46.8971C34.1195 46.8456 35.0515 45.8304 35.0001 44.629C34.7 37.6265 35.2766 31.9019 36.0196 27.6778C37.6915 27.5819 42.6731 27.0392 47.7809 23.9766C50.9659 22.0667 53.6139 19.5277 55.6515 16.4299C58.1128 12.6876 59.6748 8.12802 60.294 2.87807C60.3773 2.17178 60.1427 1.46537 59.6539 0.949195Z" fill="#91DC5A"/>
<path d="M56.5276 3.65684C56.1446 3.26434 55.5161 3.25636 55.1237 3.63912L48.4801 10.1176L49.2891 6.08607C49.3968 5.54851 49.0488 5.02537 48.5111 4.9174C47.9741 4.81007 47.4503 5.15777 47.3424 5.69546L45.9621 12.5729L43.1149 15.3495L43.9054 11.4109C44.0132 10.8734 43.665 10.3503 43.1273 10.2423C42.5899 10.1347 42.0665 10.4826 41.9587 11.0203L40.5971 17.8046L35.4342 22.8391C35.0416 23.2219 35.0339 23.8503 35.4165 24.2429C35.6112 24.4423 35.869 24.5425 36.1275 24.5425C36.3774 24.5425 36.6275 24.4488 36.8204 24.2606L41.6696 19.532L48.9507 19.4077C49.4989 19.3983 49.9356 18.9465 49.9263 18.3981C49.9171 17.8556 49.4744 17.4224 48.9341 17.4224C48.9283 17.4224 48.9224 17.4224 48.9168 17.4225L43.7422 17.5107L47.1313 14.2058L54.3343 14.0827C54.8825 14.0733 55.3192 13.6215 55.3099 13.0731C55.3007 12.5306 54.8581 12.0974 54.3177 12.0974C54.3119 12.0974 54.3061 12.0974 54.3004 12.0975L49.204 12.1846L56.5097 5.06043C56.9025 4.6778 56.9103 4.04935 56.5276 3.65684Z" fill="#5EAC24"/>
<path d="M57.2952 52.112C56.294 52.112 55.3588 52.394 54.5641 52.8824C53.3902 49.0419 49.8187 46.2481 45.5938 46.2481C45.125 46.2481 44.6646 46.2836 44.2144 46.35C42.2993 41.9687 37.9293 38.9058 32.8422 38.9058C27.755 38.9058 23.385 41.9687 21.4699 46.35C21.0196 46.2836 20.5591 46.2481 20.0905 46.2481C15.8657 46.2481 12.2943 49.0419 11.1203 52.8824C10.3255 52.394 9.39051 52.112 8.38917 52.112C5.5039 52.112 3.16479 54.4511 3.16479 57.3363C3.16479 60.2216 5.5039 62.5607 8.38917 62.5607C9.93541 62.5607 11.3242 61.8886 12.2806 60.8211C13.9618 63.3438 16.8315 65.0069 20.0904 65.0069C22.7296 65.0069 25.1129 63.9152 26.8171 62.1606C28.6014 63.154 30.655 63.7218 32.8422 63.7218C35.0293 63.7218 37.0829 63.1538 38.8673 62.1606C40.5717 63.9152 42.9548 65.0069 45.594 65.0069C48.8529 65.0069 51.7227 63.3441 53.4038 60.8211C54.3603 61.8886 55.7491 62.5607 57.2952 62.5607C60.1805 62.5607 62.5196 60.2216 62.5196 57.3363C62.5196 54.4509 60.1805 52.112 57.2952 52.112Z" fill="#CC7400"/>
<path d="M39.6623 43.9853C40.8962 43.9853 42.0867 44.168 43.2117 44.5033C40.9935 41.1326 37.1784 38.906 32.8417 38.906C27.7544 38.906 23.3845 41.969 21.4694 46.3503C21.0191 46.2838 20.5586 46.2484 20.09 46.2484C15.8652 46.2484 12.2938 49.0421 11.1198 52.8827C10.325 52.3942 9.39002 52.1122 8.38869 52.1122C5.50341 52.1122 3.16431 54.4513 3.16431 57.3366C3.16431 60.2218 5.50341 62.561 8.38869 62.561C9.93493 62.561 11.3237 61.8888 12.2801 60.8213C13.9613 63.3441 16.831 65.0071 20.0899 65.0071C22.7291 65.0071 25.1124 63.9154 26.8166 62.1609C27.5948 62.5941 28.4241 62.9461 29.2933 63.2057C28.0058 61.25 27.2544 58.9099 27.2544 56.3933C27.2544 49.5407 32.8097 43.9853 39.6623 43.9853Z" fill="#AA6100"/>
<path d="M37.776 55.7399C39.0183 55.7399 40.0253 54.7329 40.0253 53.4906C40.0253 52.2483 39.0183 51.2412 37.776 51.2412C36.5337 51.2412 35.5266 52.2483 35.5266 53.4906C35.5266 54.7329 36.5337 55.7399 37.776 55.7399Z" fill="#AA6100"/>
<path d="M46.8459 61.0371C48.0882 61.0371 49.0953 60.03 49.0953 58.7877C49.0953 57.5454 48.0882 56.5383 46.8459 56.5383C45.6036 56.5383 44.5966 57.5454 44.5966 58.7877C44.5966 60.03 45.6036 61.0371 46.8459 61.0371Z" fill="#AA6100"/>
<path d="M45.4621 51.9566C45.9401 51.9566 46.3276 51.5691 46.3276 51.0911C46.3276 50.6131 45.9401 50.2256 45.4621 50.2256C44.9841 50.2256 44.5966 50.6131 44.5966 51.0911C44.5966 51.5691 44.9841 51.9566 45.4621 51.9566Z" fill="#AA6100"/>
<path d="M32.8417 60.5189C33.3197 60.5189 33.7072 60.1314 33.7072 59.6534C33.7072 59.1753 33.3197 58.7878 32.8417 58.7878C32.3636 58.7878 31.9761 59.1753 31.9761 59.6534C31.9761 60.1314 32.3636 60.5189 32.8417 60.5189Z" fill="#AA6100"/>
<path d="M35.5266 48.7213C36.0046 48.7213 36.3921 48.3338 36.3921 47.8558C36.3921 47.3777 36.0046 46.9902 35.5266 46.9902C35.0486 46.9902 34.6611 47.3777 34.6611 47.8558C34.6611 48.3338 35.0486 48.7213 35.5266 48.7213Z" fill="#AA6100"/>
<path d="M54.151 56.606C54.6291 56.606 55.0166 56.2185 55.0166 55.7405C55.0166 55.2625 54.6291 54.875 54.151 54.875C53.673 54.875 53.2855 55.2625 53.2855 55.7405C53.2855 56.2185 53.673 56.606 54.151 56.606Z" fill="#AA6100"/>
<path d="M49.097 42.6015C50.3392 42.6015 51.3463 41.5944 51.3463 40.3521C51.3463 39.1099 50.3392 38.1028 49.097 38.1028C47.8547 38.1028 46.8476 39.1099 46.8476 40.3521C46.8476 41.5944 47.8547 42.6015 49.097 42.6015Z" fill="#CC7400"/>
<path d="M54.1518 46.2476C54.6298 46.2476 55.0174 45.8601 55.0174 45.3821C55.0174 44.9041 54.6298 44.5166 54.1518 44.5166C53.6738 44.5166 53.2863 44.9041 53.2863 45.3821C53.2863 45.8601 53.6738 46.2476 54.1518 46.2476Z" fill="#CC7400"/>
<path d="M54.1518 42.0833C54.6298 42.0833 55.0174 41.6958 55.0174 41.2178C55.0174 40.7398 54.6298 40.3523 54.1518 40.3523C53.6738 40.3523 53.2863 40.7398 53.2863 41.2178C53.2863 41.6958 53.6738 42.0833 54.1518 42.0833Z" fill="#CC7400"/>
<path d="M14.6827 41.8076C15.9249 41.8076 16.932 40.8005 16.932 39.5582C16.932 38.3159 15.9249 37.3088 14.6827 37.3088C13.4404 37.3088 12.4333 38.3159 12.4333 39.5582C12.4333 40.8005 13.4404 41.8076 14.6827 41.8076Z" fill="#AA6100"/>
<path d="M10.9475 45.3822C11.4256 45.3822 11.8131 44.9947 11.8131 44.5166C11.8131 44.0386 11.4256 43.6511 10.9475 43.6511C10.4695 43.6511 10.082 44.0386 10.082 44.5166C10.082 44.9947 10.4695 45.3822 10.9475 45.3822Z" fill="#AA6100"/>
</g>
<defs>
<clipPath id="clip0_2_3835">
<rect width="64.8065" height="64.8065" fill="white" transform="translate(0.438721 0.200439)"/>
</clipPath>
</defs>
</svg>
