<svg width="62" height="65" viewBox="0 0 62 65" fill="none" xmlns="http://www.w3.org/2000/svg">
<path d="M22.3906 53.3834L16.6312 50.9166C16.2564 50.7534 15.9372 50.4847 15.7127 50.1431C15.4881 49.8016 15.3678 49.4021 15.3664 48.9933V48.2825L15.3455 48.178C16.6069 47.9285 17.7313 47.2211 18.5022 46.192L18.5963 45.9934C19.5078 46.6156 20.5537 47.0132 21.6485 47.1536L21.638 47.2373V50.4149C21.6391 51.4514 21.8977 52.4715 22.3906 53.3834Z" fill="white"/>
<path d="M31.0447 50.0701V52.4638L28.1075 53.4463L27.0832 53.0073C26.7084 52.8441 26.3892 52.5754 26.1647 52.2338C25.9401 51.8923 25.8198 51.4928 25.8184 51.084V46.5267C26.055 46.4138 26.2853 46.2882 26.5083 46.1504C26.9484 47.0846 27.5795 47.9161 28.3609 48.5913C29.1423 49.2664 30.0566 49.7702 31.0447 50.0701Z" fill="white"/>
<path d="M33.1369 50.3735C34.0966 50.3759 35.0472 50.1878 35.9336 49.8199C36.82 49.4521 37.6245 48.9119 38.3005 48.2307L38.3632 48.283V52.0982C38.3615 52.5151 38.2352 52.922 38.0005 53.2665C37.7659 53.6111 37.4335 53.8777 37.0462 54.0319L33.1369 55.5998L28.1092 53.4466L31.0464 52.464V50.0704C31.7249 50.2719 32.4291 50.374 33.1369 50.3735Z" fill="white"/>
<path d="M46.7247 43.3489V48.0317C46.7245 48.4206 46.6158 48.8017 46.4109 49.1323C46.2059 49.4628 45.9128 49.7296 45.5645 49.9027L42.5437 51.4183V46.192L42.4705 45.9516C44.1218 45.5406 45.6069 44.632 46.7247 43.3489Z" fill="white"/>
<path d="M42.5419 46.1918V51.9617C42.5424 53.0671 42.2506 54.1529 41.6963 55.1093C41.1419 56.0656 40.3447 56.8585 39.3853 57.4075L35.2251 59.7802L33.1346 55.5992L37.0439 54.0313C37.4312 53.877 37.7635 53.6105 37.9982 53.2659C38.2329 52.9213 38.3592 52.5145 38.3609 52.0976V48.2824L38.2982 48.2301C38.901 47.6315 39.3929 46.9308 39.7511 46.1605C39.9811 46.1709 40.211 46.1918 40.4514 46.1918C41.131 46.1924 41.8083 46.1116 42.4688 45.9514L42.5419 46.1918Z" fill="#9A6948"/>
<path d="M28.1087 53.4462L33.1364 55.5995L35.2269 59.7805L37.3174 65.0068H28.9553V57.69L25.4432 56.1848C24.3162 55.6979 23.3559 54.8925 22.68 53.8676C22.0042 52.8426 21.6422 51.6427 21.6385 50.415V47.2374L21.6489 47.1538C21.9906 47.2136 22.337 47.2416 22.6838 47.2374C23.7687 47.2352 24.8397 46.9925 25.8195 46.5266V51.084C25.8209 51.4927 25.9412 51.8922 26.1658 52.2338C26.3904 52.5753 26.7095 52.8441 27.0843 53.0072L28.1087 53.4462Z" fill="#9A6948"/>
<path d="M25.6935 29.1022C24.6873 30.0607 24.0259 31.3248 23.8121 32.6979C23.4384 32.6402 23.0612 32.6088 22.6832 32.6038C21.1146 32.6026 19.5871 33.1054 18.3261 34.0382C17.065 34.971 16.1371 36.2844 15.6792 37.7846C15.2212 39.2849 15.2576 40.8926 15.7828 42.3706C16.308 43.8486 17.2943 45.1188 18.5962 45.9937L18.5021 46.1923C17.7312 47.2213 16.6068 47.9288 15.3454 48.1783C15.0088 48.2503 14.6653 48.2853 14.3211 48.2828C13.2598 48.2807 12.2243 47.9555 11.3524 47.3505C10.4804 46.7456 9.81327 45.8895 9.4397 44.8961C8.99298 45.0546 8.52344 45.1394 8.0495 45.147C6.94062 45.147 5.87715 44.7065 5.09305 43.9224C4.30895 43.1383 3.86845 42.0748 3.86845 40.9659C3.86845 40.8196 3.89981 40.6837 3.91026 40.5478C2.96749 40.1462 2.16359 39.4763 1.59854 38.6214C1.0335 37.7665 0.732239 36.7644 0.732239 35.7396C0.732239 34.7149 1.0335 33.7127 1.59854 32.8579C2.16359 32.003 2.96749 31.333 3.91026 30.9314C3.89981 30.7955 3.86845 30.6597 3.86845 30.5133C3.86137 29.617 4.08677 28.7341 4.52266 27.9508C4.95855 27.1675 5.59003 26.5106 6.3555 26.0442C7.12097 25.5777 7.99428 25.3177 8.89023 25.2894C9.78617 25.2611 10.6741 25.4656 11.4675 25.8828C11.7704 25.0939 12.3049 24.4152 13.0008 23.9357C13.6967 23.4562 14.5213 23.1986 15.3663 23.1965L15.45 23.186C15.6946 24.9297 16.5616 26.526 17.891 27.6806C19.2204 28.8351 20.9224 29.47 22.6832 29.4681C23.6328 29.4665 24.5733 29.282 25.4531 28.9245C25.5288 28.9896 25.6092 29.0489 25.6935 29.1022Z" fill="#2F5224"/>
<path d="M51.9509 15.8796C51.9517 16.9677 51.709 18.0422 51.2406 19.0243C50.7721 20.0064 50.0898 20.8712 49.2437 21.5554C48.4377 21.2559 47.5845 21.1036 46.7246 21.1059C44.7841 21.1059 42.923 21.8768 41.5508 23.2489C40.1787 24.6211 39.4078 26.4822 39.4078 28.4227C39.4127 28.7938 39.4442 29.1641 39.5019 29.5307C38.1224 29.6821 36.8032 30.1781 35.6657 30.9732C35.2446 30.0762 34.6164 29.2922 33.8328 28.6857C33.0492 28.0792 32.1327 27.6677 31.1588 27.4849C30.1849 27.3022 29.1816 27.3535 28.2314 27.6347C27.2813 27.9159 26.4115 28.4189 25.6939 29.1022C25.6096 29.0489 25.5292 28.9895 25.4535 28.9245C24.5737 29.2819 23.6332 29.4665 22.6836 29.468C20.9228 29.4699 19.2208 28.8351 17.8914 27.6805C16.5621 26.526 15.6951 24.9296 15.4504 23.186C15.3906 22.8444 15.3626 22.4979 15.3668 22.1512C15.3682 21.7977 15.3962 21.4448 15.4504 21.0954C15.419 21.0954 15.3981 21.1059 15.3668 21.1059C13.9806 21.1059 12.6513 20.5553 11.6712 19.5751C10.6911 18.595 10.1404 17.2657 10.1404 15.8796C10.1404 14.4935 10.6911 13.1642 11.6712 12.184C12.6513 11.2039 13.9806 10.6533 15.3668 10.6533C15.4086 10.6533 15.4399 10.6637 15.4713 10.6637C15.4044 10.3157 15.3694 9.96236 15.3668 9.60801C15.3668 8.22191 15.9174 6.89258 16.8975 5.91245C17.8776 4.93233 19.207 4.3817 20.5931 4.3817C21.3095 4.38073 22.0182 4.5303 22.6731 4.82071C23.6338 3.20241 25.1821 2.01748 26.9952 1.51308C28.8083 1.00869 30.7462 1.22377 32.4045 2.11348C33.4508 1.15685 34.7529 0.525472 36.152 0.296399C37.5511 0.0673259 38.9866 0.250466 40.2833 0.823468C41.58 1.39647 42.6819 2.33456 43.4545 3.52324C44.2271 4.71192 44.637 6.0998 44.6341 7.51749C44.6331 7.86754 44.6051 8.21699 44.5505 8.56275H44.6341C46.5746 8.56275 48.4357 9.33363 49.8079 10.7058C51.18 12.078 51.9509 13.939 51.9509 15.8796Z" fill="#5CB34F"/>
<path d="M31.044 50.0698C30.0559 49.7699 29.1416 49.2661 28.3602 48.5909C27.5788 47.9158 26.9477 47.0842 26.5076 46.1501C26.2846 46.2879 26.0543 46.4135 25.8177 46.5264C24.8379 46.9922 23.7669 47.235 22.6819 47.2371C22.3352 47.2413 21.9887 47.2133 21.6471 47.1535C20.5524 47.0131 19.5065 46.6155 18.595 45.9933C17.2931 45.1184 16.3068 43.8483 15.7815 42.3702C15.2563 40.8922 15.22 39.2845 15.6779 37.7843C16.1358 36.284 17.0638 34.9706 18.3248 34.0378C19.5859 33.105 21.1134 32.6022 22.6819 32.6035C23.06 32.6084 23.4372 32.6398 23.8108 32.6975C24.0247 31.3244 24.6861 30.0603 25.6923 29.1018C26.4099 28.4185 27.2796 27.9156 28.2298 27.6344C29.1799 27.3532 30.1833 27.3019 31.1572 27.4846C32.1311 27.6674 33.0476 28.0789 33.8312 28.6854C34.6148 29.2919 35.243 30.0759 35.6641 30.9729C36.8015 30.1778 38.1207 29.6817 39.5002 29.5304C39.4425 29.1638 39.4111 28.7935 39.4061 28.4224C39.4061 26.4819 40.177 24.6208 41.5492 23.2486C42.9214 21.8765 44.7824 21.1056 46.723 21.1056C47.5828 21.1033 48.4361 21.2556 49.2421 21.555C49.424 21.6174 49.602 21.6907 49.7751 21.7745C50.6514 21.3091 51.6331 21.0784 52.625 21.1048C53.6168 21.1312 54.5849 21.4139 55.4351 21.9253C56.2853 22.4367 56.9887 23.1594 57.4769 24.0232C57.965 24.8869 58.2213 25.8624 58.2209 26.8545C58.2187 28.0446 57.8501 29.2052 57.1651 30.1785C58.1753 30.6523 59.0637 31.3509 59.7624 32.2208C60.4611 33.0907 60.9516 34.1089 61.1964 35.1975C61.4412 36.2861 61.4337 37.4163 61.1747 38.5016C60.9156 39.5868 60.4118 40.5985 59.7017 41.4592C58.9916 42.3198 58.0941 43.0067 57.0778 43.4672C56.0615 43.9277 54.9533 44.1497 53.8381 44.1162C52.7228 44.0827 51.6299 43.7946 50.6431 43.2739C49.6563 42.7532 48.8017 42.0136 48.1445 41.1119C47.791 41.9275 47.3113 42.6824 46.723 43.3488C45.6052 44.6319 44.1201 45.5404 42.4688 45.9515C41.8083 46.1117 41.131 46.1924 40.4514 46.1919C40.211 46.1919 39.981 46.171 39.7511 46.1605C39.1618 47.4183 38.2266 48.4823 37.055 49.2282C35.8833 49.9742 34.5235 50.3712 33.1346 50.3729C32.4267 50.3734 31.7226 50.2713 31.044 50.0698Z" fill="#7BC24F"/>
<path d="M54.0407 38.8757C52.8924 38.8749 51.7604 38.6039 50.7363 38.0846C49.7121 37.5653 48.8246 36.8122 48.1455 35.8862C47.792 36.7019 47.3123 37.4567 46.7239 38.1231C45.6061 39.4062 44.121 40.3148 42.4697 40.7258C41.8092 40.886 41.132 40.9667 40.4523 40.9662C40.2119 40.9662 39.982 40.9453 39.752 40.9348C39.1627 42.1926 38.2276 43.2566 37.0559 44.0026C35.8842 44.7485 34.5245 45.1455 33.1355 45.1473C31.7431 45.149 30.3793 44.7523 29.205 44.0041C28.0308 43.2558 27.0951 42.1872 26.5085 40.9244C26.2855 41.0622 26.0552 41.1878 25.8187 41.3007C24.8388 41.7665 23.7678 42.0093 22.6829 42.0115C22.3361 42.0156 21.9897 41.9877 21.6481 41.9278C20.5534 41.7874 19.5075 41.3898 18.5959 40.7676C17.3484 39.927 16.3901 38.7226 15.8511 37.3182C15.2593 38.8615 15.2086 40.5599 15.7072 42.1358C16.2058 43.7117 17.2242 45.0718 18.5959 45.9939C19.5075 46.6161 20.5534 47.0137 21.6481 47.1542C21.9897 47.214 22.3361 47.242 22.6829 47.2378C23.7678 47.2356 24.8388 46.9928 25.8187 46.527C26.0552 46.4141 26.2855 46.2885 26.5085 46.1507C27.0951 47.4135 28.0308 48.4821 29.205 49.2304C30.3793 49.9786 31.7431 50.3753 33.1355 50.3736C34.5245 50.3718 35.8842 49.9748 37.0559 49.2289C38.2276 48.4829 39.1627 47.4189 39.752 46.1612C39.982 46.1716 40.2119 46.1925 40.4523 46.1925C41.132 46.193 41.8092 46.1123 42.4697 45.9521C44.121 45.5411 45.6061 44.6325 46.7239 43.3494C47.3123 42.683 47.792 41.9282 48.1455 41.1125C49.1863 42.5496 50.7148 43.5584 52.4454 43.9504C54.176 44.3423 55.99 44.0905 57.5484 43.2421C59.1068 42.3937 60.3029 41.0067 60.9129 39.3404C61.523 37.6742 61.5053 35.8428 60.8632 34.1887C60.3335 35.5683 59.3979 36.7549 58.1798 37.5917C56.9618 38.4285 55.5185 38.8762 54.0407 38.8757Z" fill="#44853B"/>
<path d="M57.1921 30.1926L57.1451 30.1999C56.9264 31.6452 56.1797 32.958 55.0493 33.8847C53.9189 34.8114 52.4851 35.2862 51.0251 35.2172C50.0849 35.2296 49.1535 35.0352 48.2968 34.6477C47.4401 34.2603 46.679 33.6893 46.0674 32.9751C45.7633 33.596 45.3593 34.1627 44.8716 34.6528C43.8931 35.6356 42.6507 36.3139 41.2947 36.6053C40.7372 36.7252 40.1685 36.7854 39.5983 36.7851C39.3955 36.7851 39.2021 36.7694 39.0087 36.7611C38.7004 37.3489 38.2866 37.8751 37.7879 38.3133C36.5887 39.3641 35.0444 39.9364 33.45 39.9209C32.8569 39.9216 32.2663 39.845 31.693 39.693C30.8898 39.4901 30.1368 39.1246 29.4806 38.619C28.8243 38.1134 28.2788 37.4786 27.8778 36.7537C27.6927 36.8583 27.4994 36.9492 27.2976 37.036C26.4628 37.3873 25.5662 37.5686 24.6604 37.569C24.3693 37.5722 24.0784 37.5512 23.7908 37.5063C22.8822 37.4049 22.0064 37.1079 21.2236 36.6356C20.1022 35.9783 19.2453 34.9502 18.8007 33.7287C17.4568 34.5736 16.4238 35.8322 15.8572 37.315C16.3963 38.7194 17.3546 39.9238 18.6021 40.7644C19.5137 41.3866 20.5596 41.7842 21.6543 41.9246C21.9941 41.9852 22.3387 42.0142 22.6838 42.0114C23.7688 42.0092 24.8398 41.7665 25.8196 41.3006C26.0562 41.1877 26.2865 41.0621 26.5095 40.9243C27.0961 42.1871 28.0318 43.2557 29.206 44.004C30.3803 44.7523 31.7441 45.1489 33.1365 45.1472C34.5254 45.1455 35.8852 44.7484 37.0569 44.0025C38.2285 43.2566 39.1637 42.1925 39.753 40.9348C39.9829 40.9452 40.2129 40.9661 40.4533 40.9661C41.1329 40.9667 41.8102 40.886 42.4707 40.7257C44.122 40.3147 45.6071 39.4061 46.7249 38.123C47.3132 37.4567 47.7929 36.7018 48.1464 35.8862C48.9215 36.9446 49.9673 37.7748 51.1738 38.2897C52.3804 38.8046 53.7034 38.9852 55.0038 38.8125C56.3043 38.6398 57.5343 38.1203 58.5647 37.3083C59.5951 36.4964 60.3879 35.4221 60.86 34.1981C60.1993 32.4401 58.8853 31.0051 57.1921 30.1926Z" fill="#5CB34F"/>
<path d="M22.3896 53.3836C22.1564 52.9504 21.9754 52.4911 21.8502 52.0153L17.0493 49.9551C16.8613 49.8737 16.7009 49.7396 16.5876 49.5689C16.4742 49.3982 16.4128 49.1984 16.4107 48.9935V47.8333C16.069 47.9869 15.7114 48.1026 15.3445 48.1782C15.0079 48.2502 14.6644 48.2852 14.3201 48.2827V48.9935C14.3214 49.6067 14.5017 50.2061 14.839 50.7182C15.1762 51.2303 15.6556 51.6329 16.2183 51.8763L21.9788 54.3452C22.0914 54.3937 22.2117 54.422 22.3342 54.4289L23.1484 54.4717C22.8574 54.1371 22.603 53.7723 22.3896 53.3836Z" fill="#5D241D"/>
<path d="M30.0006 49.6526V51.7107L27.7774 52.4549C27.6379 52.502 27.5099 52.578 27.4018 52.678C27.2937 52.778 27.208 52.8996 27.1502 53.0351L28.1077 53.4458L29.5533 54.0646L31.3762 53.4542C31.5843 53.3849 31.7652 53.2519 31.8936 53.0741C32.0219 52.8963 32.091 52.6826 32.0912 52.4633V50.2975C31.3635 50.1993 30.6572 49.9813 30.0006 49.6526Z" fill="#5D241D"/>
<path d="M47.7412 41.8743C47.4565 42.4012 47.1155 42.8957 46.7242 43.3491C46.4057 43.71 46.0559 44.0419 45.6789 44.3411V48.0319C45.6795 48.2276 45.6252 48.4195 45.5221 48.5858C45.4189 48.7521 45.2712 48.8862 45.0957 48.9726L42.5432 50.2489V51.9621C42.5432 52.1314 42.5233 52.2966 42.5097 52.4638H42.5432C42.7058 52.464 42.8662 52.4261 43.0114 52.353L46.0312 50.8374C46.5542 50.5789 46.9942 50.1791 47.3015 49.6832C47.6087 49.1873 47.7708 48.6153 47.7695 48.0319V42.0112C47.7638 41.9649 47.7544 41.9191 47.7412 41.8743Z" fill="#5D241D"/>
<path d="M34.8506 62.9163C34.3671 62.9165 33.8986 62.7491 33.5246 62.4427C33.1507 62.1362 32.8946 61.7096 32.7998 61.2355L32.0911 57.69L24.5328 53.9103C24.2914 53.7898 24.0883 53.6044 23.9464 53.3749C23.8044 53.1454 23.7291 52.8809 23.729 52.6111V51.8271C23.729 51.4415 23.8822 51.0717 24.1549 50.799C24.4275 50.5264 24.7974 50.3732 25.183 50.3732H25.8195V46.5266C24.8397 46.9925 23.7687 47.2352 22.6838 47.2374C22.337 47.2416 21.9906 47.2136 21.6489 47.1538L21.6385 47.2374V50.415C21.6422 51.6427 22.0042 52.8426 22.68 53.8676C23.3559 54.8925 24.3162 55.6979 25.4432 56.1848L28.9553 57.69V65.0068H37.3174L36.4812 62.9163H34.8506Z" fill="#714226"/>
<path d="M42.4688 45.9514C41.8083 46.1116 41.131 46.1924 40.4514 46.1918C40.211 46.1918 39.9811 46.1709 39.7511 46.1605C39.3929 46.9308 38.901 47.6315 38.2982 48.2301L38.3609 48.2824V52.0976C38.3592 52.5145 38.2329 52.9213 37.9982 53.2659C37.7635 53.6105 37.4312 53.877 37.0439 54.0313L33.1346 55.5992L35.2251 59.7802L37.4975 58.4841L37.3668 58.2897C37.0707 57.845 36.956 57.3038 37.0464 56.7772C37.1368 56.2506 37.4254 55.7785 37.8529 55.4581L39.1971 54.4494C39.5866 54.1573 39.9027 53.7786 40.1204 53.3431C40.3381 52.9077 40.4514 52.4276 40.4514 51.9408V50.3729C40.4514 49.8184 40.6717 49.2867 41.0637 48.8946C41.4558 48.5026 41.9875 48.2824 42.5419 48.2824V46.1918L42.4688 45.9514Z" fill="#714226"/>
<path d="M52.473 21.1059C51.5328 21.104 50.6066 21.3338 49.7763 21.7749C49.6032 21.691 49.4252 21.6177 49.2432 21.5554C48.4372 21.2559 47.5839 21.1036 46.7241 21.1059C44.7836 21.1059 42.9225 21.8768 41.5503 23.2489C40.1781 24.6211 39.4073 26.4822 39.4073 28.4227C39.4122 28.7938 39.4436 29.1641 39.5013 29.5307C38.1219 29.6821 36.8027 30.1781 35.6652 30.9732C35.0927 29.76 34.1459 28.7628 32.964 28.1283C31.7821 27.4938 30.4277 27.2556 29.1003 27.4488C27.7729 27.6419 26.5425 28.2562 25.5905 29.2012C24.6384 30.1462 24.015 31.3719 23.812 32.6978L23.7283 32.6874V35.8232L23.812 35.8336C24.0258 34.4605 24.6872 33.1964 25.6934 32.2379C26.411 31.5546 27.2807 31.0517 28.2309 30.7705C29.181 30.4893 30.1844 30.438 31.1583 30.6207C32.1322 30.8035 33.0487 31.215 33.8323 31.8215C34.6159 32.428 35.2441 33.212 35.6652 34.109C36.8027 33.3139 38.1219 32.8178 39.5013 32.6665C39.4436 32.2999 39.4122 31.9296 39.4073 31.5585C39.4073 29.618 40.1781 27.7569 41.5503 26.3847C42.9225 25.0126 44.7836 24.2417 46.7241 24.2417C47.5839 24.2394 48.4372 24.3916 49.2432 24.6911C49.4252 24.7535 49.6032 24.8268 49.7763 24.9106C50.5322 24.5098 51.3681 24.2827 52.223 24.246C53.0779 24.2093 53.9302 24.3639 54.7178 24.6986C55.5053 25.0332 56.2082 25.5394 56.7752 26.1802C57.3422 26.8211 57.759 27.5804 57.9952 28.4029C58.2435 27.5493 58.2888 26.6494 58.1276 25.7752C57.9663 24.901 57.603 24.0765 57.0666 23.3676C56.5301 22.6588 55.8354 22.0851 55.0378 21.6924C54.2403 21.2997 53.362 21.0989 52.473 21.1059Z" fill="#8EE05B"/>
<path d="M43.6752 18.3885C42.4793 17.4844 41.0901 16.8699 39.6168 16.593C38.1434 16.3161 36.6259 16.3844 35.1834 16.7925C33.7409 17.2006 32.4125 17.9375 31.3027 18.9452C30.1928 19.953 29.3315 21.2043 28.7865 22.6009C28.8262 21.1939 27.2855 20.3013 25.9141 19.9814C23.7473 19.4929 21.4856 19.638 19.399 20.3995C18.952 20.6136 18.484 20.7807 18.0025 20.8981C17.4653 20.9744 16.9102 20.9086 16.3656 21.0027C16.053 21.0586 15.7441 21.1337 15.4406 21.2274C15.3958 21.5334 15.3714 21.8421 15.3674 22.1514C15.3632 22.4982 15.3912 22.8446 15.451 23.1862C15.6957 24.9299 16.5627 26.5262 17.8921 27.6808C19.2215 28.8353 20.9235 29.4702 22.6842 29.4682C23.6339 29.4667 24.5744 29.2821 25.4542 28.9247C25.5299 28.9897 25.6102 29.0491 25.6946 29.1024C26.4122 28.4191 27.2819 27.9161 28.2321 27.635C29.1822 27.3538 30.1856 27.3024 31.1595 27.4852C32.1334 27.6679 33.0499 28.0795 33.8335 28.686C34.6171 29.2924 35.2453 30.0765 35.6664 30.9734C36.8038 30.1783 38.123 29.6823 39.5025 29.5309C39.4448 29.1643 39.4134 28.7941 39.4084 28.423C39.4084 26.4824 40.1793 24.6214 41.5515 23.2492C42.9237 21.877 44.7847 21.1061 46.7253 21.1061C47.5851 21.1039 48.4384 21.2561 49.2444 21.5556C50.6135 20.4434 51.533 18.8725 51.8324 17.1341C50.4829 16.6056 49.0176 16.4432 47.585 16.6635C46.1525 16.8838 44.8036 17.4789 43.6752 18.3885Z" fill="#44853B"/>
<path d="M49.9521 10.8619C49.6072 10.8619 49.2622 10.8462 48.9162 10.8692C46.6336 10.9429 44.4675 11.8948 42.8694 13.5263C42.11 12.771 41.203 12.1806 40.205 11.7919C39.207 11.4032 38.1396 11.2247 37.0694 11.2673C35.9992 11.31 34.9494 11.573 33.9855 12.04C33.0217 12.5069 32.1645 13.1677 31.4677 13.981C30.6791 13.3238 29.7581 12.8443 28.7676 12.575C27.777 12.3058 26.7401 12.253 25.7273 12.4205C24.7145 12.5879 23.7497 12.9715 22.8985 13.5453C22.0473 14.119 21.3297 14.8694 20.7945 15.7454C20.2078 15.2439 19.5279 14.863 18.7937 14.6247C18.0596 14.3863 17.2857 14.2951 16.5163 14.3562C14.9758 14.4886 13.4975 15.0251 12.2307 15.9116C11.5734 16.3632 10.964 16.8809 10.4119 17.4565C10.7436 18.5118 11.4025 19.4342 12.2932 20.0902C13.1839 20.7462 14.2603 21.1018 15.3665 21.1055C15.3978 21.1055 15.4187 21.095 15.4501 21.095C15.4438 21.1379 15.4501 21.1818 15.4396 21.2246C15.7431 21.131 16.0521 21.0559 16.3647 20.9999C16.9093 20.9058 17.4643 20.9717 18.0016 20.8954C18.4831 20.778 18.9511 20.6109 19.398 20.3968C21.4847 19.6353 23.7463 19.4901 25.9132 19.9787C27.2845 20.2923 28.8253 21.1912 28.7855 22.5981C29.3308 21.2017 30.1922 19.9507 31.3022 18.9431C32.4122 17.9356 33.7405 17.1989 35.183 16.791C36.6256 16.3831 38.143 16.315 39.6162 16.592C41.0895 16.8691 42.4785 17.4837 43.6743 18.3878C44.8022 17.479 46.1504 16.8843 47.5821 16.664C49.0138 16.4438 50.4783 16.6057 51.8273 17.1335C52.0342 16.0138 51.9714 14.861 51.6442 13.7704C51.317 12.6798 50.7349 11.6828 49.9458 10.8619H49.9521Z" fill="#52A147"/>
<path d="M6.04364 41.842C6.26854 40.8956 6.55449 39.9647 6.89971 39.0553C6.33576 38.9184 5.83913 38.5848 5.49906 38.1145C5.07856 37.5896 4.79728 36.9671 4.68126 36.3046C4.56524 35.6421 4.61823 34.961 4.83532 34.3244C5.07517 33.6861 5.49218 33.1295 6.03737 32.72C6.30618 32.515 6.60335 32.3502 6.91957 32.2308C7.12862 32.1524 7.7746 32.1179 7.84777 31.9329C7.91257 31.7688 7.40039 31.0381 7.32513 30.8625C7.1352 30.4517 6.97453 30.028 6.84431 29.5946C6.57772 28.7373 6.48602 27.8352 6.57464 26.9417C6.62104 26.5604 6.70793 26.1852 6.83386 25.8223C5.94794 26.2456 5.19959 26.9105 4.67496 27.7404C4.15033 28.5703 3.87076 29.5316 3.86845 30.5134C3.86845 30.6597 3.89981 30.7956 3.91026 30.9315C2.96749 31.3331 2.16359 32.003 1.59854 32.8579C1.0335 33.7128 0.732239 34.715 0.732239 35.7397C0.732239 36.7645 1.0335 37.7666 1.59854 38.6215C2.16359 39.4764 2.96749 40.1463 3.91026 40.5479C3.89981 40.6838 3.86845 40.8197 3.86845 40.966C3.86841 41.6795 4.0517 42.3811 4.40075 43.0034C4.74979 43.6257 5.25288 44.1479 5.86177 44.5199C5.80011 43.6231 5.8613 42.7222 6.04364 41.842Z" fill="#39632C"/>
<path d="M25.454 28.9243C24.5742 29.2817 23.6337 29.4663 22.6841 29.4678C20.9233 29.4698 19.2213 28.8349 17.8919 27.6804C16.5625 26.5258 15.6955 24.9294 15.4509 23.1858L15.3672 23.1962C14.5401 23.1989 13.7324 23.4468 13.0462 23.9086C12.36 24.3704 11.8262 25.0253 11.5123 25.7906C11.8395 26.8641 12.2639 27.9104 12.6903 28.9494C12.8283 29.288 12.9673 29.6267 13.1335 29.9528C13.3922 30.5081 13.7337 31.0209 14.1464 31.4737C13.7306 31.7416 13.3389 32.0452 12.9757 32.381C12.6234 32.739 12.3153 33.138 12.0579 33.5694C11.5442 34.4335 11.214 35.3942 11.0879 36.3916C10.9019 38.3932 11.244 40.4086 12.0799 42.2367C10.9387 42.9679 10.0837 44.0691 9.65802 45.3558C10.0842 46.2308 10.7471 46.9688 11.5714 47.4862C12.3958 48.0035 13.3487 48.2794 14.322 48.2825C14.6662 48.2851 15.0097 48.25 15.3463 48.178C16.6077 47.9285 17.7321 47.2211 18.503 46.192L18.5971 45.9934C17.2952 45.1185 16.3089 43.8484 15.7837 42.3704C15.2585 40.8923 15.2221 39.2846 15.6801 37.7844C16.138 36.2842 17.0659 34.9708 18.327 34.038C19.588 33.1052 21.1155 32.6023 22.6841 32.6036C23.0621 32.6085 23.4393 32.64 23.813 32.6977C24.0268 31.3245 24.6882 30.0605 25.6944 29.102C25.6101 29.0487 25.5297 28.9893 25.454 28.9243Z" fill="#233D1B"/>
<path d="M12.0778 42.2412C11.2419 40.413 10.8999 38.3977 11.0858 36.3961C11.2119 35.3987 11.5421 34.438 12.0558 33.5739C12.3132 33.1425 12.6213 32.7435 12.9736 32.3854C13.3368 32.0496 13.7285 31.746 14.1443 31.4781C13.7316 31.0254 13.3901 30.5126 13.1314 29.9573C12.9652 29.6312 12.8262 29.2925 12.6882 28.9538C12.2618 27.9148 11.8374 26.8633 11.5102 25.795C11.4966 25.8264 11.4789 25.8557 11.4663 25.887C10.7548 25.5062 9.96215 25.302 9.1552 25.2917C8.34824 25.2813 7.55062 25.4651 6.82954 25.8275C6.70361 26.1903 6.61671 26.5656 6.57032 26.9469C6.4817 27.8404 6.5734 28.7425 6.83999 29.5998C6.97021 30.0332 7.13088 30.4569 7.32081 30.8677C7.4013 31.0433 7.91348 31.7739 7.84344 31.9381C7.77028 32.1231 7.1243 32.1576 6.91525 32.236C6.59903 32.3554 6.30186 32.5202 6.03305 32.7251C5.48786 33.1347 5.07085 33.6913 4.831 34.3296C4.61391 34.9662 4.56092 35.6473 4.67694 36.3098C4.79296 36.9723 5.07424 37.5948 5.49474 38.1197C5.83481 38.59 6.33144 38.9235 6.89539 39.0605C6.54946 39.9699 6.26281 40.9007 6.03723 41.8471C5.85711 42.7259 5.79768 43.6251 5.86058 44.5199C6.51704 44.9289 7.27484 45.1462 8.04832 45.147C8.52226 45.1394 8.9918 45.0547 9.43851 44.8962C9.50018 45.0571 9.58067 45.2097 9.65593 45.3603C10.0816 44.0736 10.9366 42.9723 12.0778 42.2412Z" fill="#2F5224"/>
<path d="M12.231 15.912C13.1919 15.2563 14.2662 14.7846 15.3992 14.5207C15.4756 13.1941 16.0558 11.9468 17.0212 11.0337C17.9866 10.1206 19.2643 9.61061 20.5931 9.60801C21.3095 9.60704 22.0182 9.75661 22.6731 10.047C23.6338 8.42872 25.1821 7.24379 26.9952 6.73939C28.8083 6.235 30.7462 6.45009 32.4045 7.33979C33.2288 6.58456 34.2156 6.02886 35.2887 5.71562C36.3619 5.40238 37.4926 5.33998 38.5937 5.53322C39.6948 5.72647 40.7368 6.1702 41.6391 6.83015C42.5415 7.4901 43.2801 8.34861 43.7979 9.33938C44.308 8.88678 44.6341 8.56275 44.6341 8.56275H44.5505C44.6051 8.21699 44.6331 7.86754 44.6341 7.51749C44.637 6.0998 44.2271 4.71192 43.4545 3.52324C42.6819 2.33456 41.58 1.39647 40.2833 0.823468C38.9866 0.250466 37.5511 0.0673259 36.152 0.296399C34.7529 0.525472 33.4508 1.15685 32.4045 2.11348C30.7462 1.22377 28.8083 1.00869 26.9952 1.51308C25.1821 2.01748 23.6338 3.20241 22.6731 4.82071C22.0182 4.5303 21.3095 4.38073 20.5931 4.3817C19.207 4.3817 17.8776 4.93233 16.8975 5.91245C15.9174 6.89258 15.3668 8.22191 15.3668 9.60801C15.3694 9.96236 15.4044 10.3157 15.4713 10.6637C15.4399 10.6637 15.4086 10.6533 15.3668 10.6533C13.9806 10.6533 12.6513 11.2039 11.6712 12.184C10.6911 13.1642 10.1404 14.4935 10.1404 15.8796C10.1456 16.6654 10.3331 17.4394 10.6882 18.1405C10.5795 17.9193 10.4863 17.6909 10.4091 17.4569C10.9621 16.8811 11.5726 16.3635 12.231 15.912Z" fill="#7BC24F"/>
<path d="M15.7728 57.7143C21.4778 57.7143 26.1025 53.0895 26.1025 47.3846C26.1025 41.6797 21.4778 37.0549 15.7728 37.0549C10.0679 37.0549 5.44318 41.6797 5.44318 47.3846C5.44318 53.0895 10.0679 57.7143 15.7728 57.7143Z" fill="#E24C4B"/>
<path d="M26.1027 47.3847C26.1027 53.066 21.4543 57.7144 15.773 57.7144C12.4804 57.7144 9.57522 56.2295 7.70294 53.8408C9.44607 55.2611 11.7057 56.1004 14.159 56.1004C19.8403 56.1004 24.4886 51.4521 24.4886 45.7707C24.4886 43.3174 23.6493 41.0578 22.229 39.3147C24.6178 41.1869 26.1027 44.0921 26.1027 47.3847Z" fill="#D1403F"/>
<path d="M20.4858 52.0976C20.0985 52.485 19.4528 52.485 19.0655 52.0976L15.7729 48.8051L12.4804 52.0976C12.093 52.485 11.4474 52.485 11.06 52.0976C10.6727 51.7103 10.6727 51.0647 11.06 50.6773L14.3526 47.3848L11.06 44.0922C10.6727 43.7048 10.6727 43.0592 11.06 42.6719C11.4474 42.2845 12.093 42.2845 12.4804 42.6719L15.7729 45.9644L19.0655 42.6719C19.4528 42.2845 20.0985 42.2845 20.4858 42.6719C20.8732 43.0592 20.8732 43.7048 20.4858 44.0922L17.1933 47.3848L20.4858 50.6773C20.8732 51.0647 20.8732 51.7103 20.4858 52.0976Z" fill="white"/>
</svg>
