<svg width="61" height="65" viewBox="0 0 61 65" fill="none" xmlns="http://www.w3.org/2000/svg">
<path d="M21.7849 53.3834L16.0255 50.9166C15.6507 50.7534 15.3315 50.4847 15.1069 50.1431C14.8823 49.8016 14.762 49.4021 14.7607 48.9933V48.2825L14.7398 48.178C16.0012 47.9285 17.1256 47.2211 17.8965 46.192L17.9906 45.9934C18.9021 46.6156 19.948 47.0132 21.0427 47.1536L21.0323 47.2373V50.4149C21.0334 51.4514 21.292 52.4715 21.7849 53.3834Z" fill="white"/>
<path d="M30.439 50.0701V52.4638L27.5018 53.4463L26.4775 53.0073C26.1027 52.8441 25.7835 52.5754 25.5589 52.2338C25.3343 51.8923 25.214 51.4928 25.2127 51.084V46.5267C25.4493 46.4138 25.6796 46.2882 25.9026 46.1504C26.3427 47.0846 26.9738 47.9161 27.7552 48.5913C28.5366 49.2664 29.4509 49.7702 30.439 50.0701Z" fill="white"/>
<path d="M32.5312 50.3735C33.4909 50.3759 34.4415 50.1878 35.3279 49.8199C36.2143 49.4521 37.0188 48.9119 37.6948 48.2307L37.7575 48.283V52.0982C37.7558 52.5151 37.6295 52.922 37.3948 53.2665C37.1601 53.6111 36.8278 53.8777 36.4405 54.0319L32.5312 55.5998L27.5035 53.4466L30.4407 52.464V50.0704C31.1192 50.2719 31.8234 50.374 32.5312 50.3735Z" fill="white"/>
<path d="M46.119 43.3489V48.0317C46.1188 48.4206 46.0101 48.8017 45.8052 49.1323C45.6002 49.4628 45.3071 49.7296 44.9588 49.9027L41.938 51.4183V46.192L41.8648 45.9516C43.5161 45.5406 45.0012 44.632 46.119 43.3489Z" fill="white"/>
<path d="M41.9362 46.1918V51.9617C41.9367 53.0671 41.6449 54.1529 41.0906 55.1093C40.5362 56.0656 39.739 56.8585 38.7795 57.4075L34.6194 59.7802L32.5289 55.5992L36.4382 54.0313C36.8255 53.877 37.1578 53.6105 37.3925 53.2659C37.6272 52.9213 37.7535 52.5145 37.7552 52.0976V48.2824L37.6925 48.2301C38.2953 47.6315 38.7872 46.9308 39.1454 46.1605C39.3753 46.1709 39.6053 46.1918 39.8457 46.1918C40.5253 46.1924 41.2026 46.1116 41.8631 45.9514L41.9362 46.1918Z" fill="#9A6948"/>
<path d="M27.5029 53.4462L32.5307 55.5995L34.6212 59.7805L36.7117 65.0068H28.3496V57.69L24.8375 56.1848C23.7105 55.6979 22.7502 54.8925 22.0743 53.8676C21.3984 52.8426 21.0365 51.6427 21.0328 50.415V47.2374L21.0432 47.1538C21.3848 47.2136 21.7313 47.2416 22.078 47.2374C23.163 47.2352 24.234 46.9925 25.2138 46.5266V51.084C25.2152 51.4927 25.3355 51.8922 25.5601 52.2338C25.7846 52.5753 26.1038 52.8441 26.4786 53.0072L27.5029 53.4462Z" fill="#9A6948"/>
<path d="M25.0878 29.1022C24.0816 30.0607 23.4202 31.3248 23.2063 32.6979C22.8327 32.6402 22.4555 32.6088 22.0775 32.6038C20.5089 32.6026 18.9814 33.1054 17.7204 34.0382C16.4593 34.971 15.5314 36.2844 15.0734 37.7846C14.6155 39.2849 14.6518 40.8926 15.1771 42.3706C15.7023 43.8486 16.6886 45.1188 17.9905 45.9937L17.8964 46.1923C17.1255 47.2213 16.0011 47.9288 14.7397 48.1783C14.4031 48.2503 14.0596 48.2853 13.7154 48.2828C12.6541 48.2807 11.6186 47.9555 10.7466 47.3505C9.87468 46.7456 9.20755 45.8895 8.83399 44.8961C8.38727 45.0546 7.91773 45.1394 7.44379 45.147C6.3349 45.147 5.27144 44.7065 4.48734 43.9224C3.70324 43.1383 3.26274 42.0748 3.26274 40.9659C3.26274 40.8196 3.2941 40.6837 3.30455 40.5478C2.36178 40.1462 1.55788 39.4763 0.99283 38.6214C0.427784 37.7665 0.126526 36.7644 0.126526 35.7396C0.126526 34.7149 0.427784 33.7127 0.99283 32.8579C1.55788 32.003 2.36178 31.333 3.30455 30.9314C3.2941 30.7955 3.26274 30.6597 3.26274 30.5133C3.25566 29.617 3.48106 28.7341 3.91695 27.9508C4.35283 27.1675 4.98432 26.5106 5.74979 26.0442C6.51526 25.5777 7.38857 25.3177 8.28451 25.2894C9.18046 25.2611 10.0684 25.4656 10.8618 25.8828C11.1647 25.0939 11.6992 24.4152 12.3951 23.9357C13.0909 23.4562 13.9156 23.1986 14.7606 23.1965L14.8442 23.186C15.0889 24.9297 15.9559 26.526 17.2853 27.6806C18.6147 28.8351 20.3167 29.47 22.0775 29.4681C23.0271 29.4665 23.9676 29.282 24.8474 28.9245C24.9231 28.9896 25.0034 29.0489 25.0878 29.1022Z" fill="#2F5224"/>
<path d="M51.3452 15.8796C51.346 16.9677 51.1033 18.0422 50.6349 19.0243C50.1664 20.0064 49.4841 20.8712 48.638 21.5554C47.832 21.2559 46.9787 21.1036 46.1189 21.1059C44.1784 21.1059 42.3173 21.8768 40.9451 23.2489C39.5729 24.6211 38.8021 26.4822 38.8021 28.4227C38.807 28.7938 38.8384 29.1641 38.8961 29.5307C37.5167 29.6821 36.1975 30.1781 35.06 30.9732C34.6389 30.0762 34.0107 29.2922 33.2271 28.6857C32.4435 28.0792 31.527 27.6677 30.5531 27.4849C29.5792 27.3022 28.5758 27.3535 27.6257 27.6347C26.6756 27.9159 25.8058 28.4189 25.0882 29.1022C25.0039 29.0489 24.9235 28.9895 24.8478 28.9245C23.968 29.2819 23.0275 29.4665 22.0779 29.468C20.3171 29.4699 18.6151 28.8351 17.2857 27.6805C15.9563 26.526 15.0893 24.9296 14.8447 23.186C14.7848 22.8444 14.7569 22.4979 14.761 22.1512C14.7625 21.7977 14.7904 21.4448 14.8447 21.0954C14.8133 21.0954 14.7924 21.1059 14.761 21.1059C13.3749 21.1059 12.0456 20.5553 11.0655 19.5751C10.0854 18.595 9.53473 17.2657 9.53473 15.8796C9.53473 14.4935 10.0854 13.1642 11.0655 12.184C12.0456 11.2039 13.3749 10.6533 14.761 10.6533C14.8028 10.6533 14.8342 10.6637 14.8656 10.6637C14.7987 10.3157 14.7637 9.96236 14.761 9.60801C14.761 8.22191 15.3117 6.89258 16.2918 5.91245C17.2719 4.93233 18.6012 4.3817 19.9874 4.3817C20.7038 4.38073 21.4125 4.5303 22.0674 4.82071C23.0281 3.20241 24.5764 2.01748 26.3895 1.51308C28.2026 1.00869 30.1404 1.22377 31.7988 2.11348C32.8451 1.15685 34.1472 0.525472 35.5463 0.296399C36.9454 0.0673259 38.3809 0.250466 39.6776 0.823468C40.9743 1.39647 42.0762 2.33456 42.8488 3.52324C43.6214 4.71192 44.0313 6.0998 44.0284 7.51749C44.0273 7.86754 43.9994 8.21699 43.9448 8.56275H44.0284C45.9689 8.56275 47.83 9.33363 49.2022 10.7058C50.5743 12.078 51.3452 13.939 51.3452 15.8796Z" fill="#5CB34F"/>
<path d="M30.4383 50.0698C29.4502 49.7699 28.5359 49.2661 27.7545 48.5909C26.9731 47.9158 26.342 47.0842 25.9019 46.1501C25.6789 46.2879 25.4486 46.4135 25.212 46.5264C24.2322 46.9922 23.1612 47.235 22.0762 47.2371C21.7294 47.2413 21.383 47.2133 21.0414 47.1535C19.9467 47.0131 18.9008 46.6155 17.9893 45.9933C16.6873 45.1184 15.701 43.8483 15.1758 42.3702C14.6506 40.8922 14.6143 39.2845 15.0722 37.7843C15.5301 36.284 16.4581 34.9706 17.7191 34.0378C18.9802 33.105 20.5077 32.6022 22.0762 32.6035C22.4543 32.6084 22.8315 32.6398 23.2051 32.6975C23.4189 31.3244 24.0804 30.0603 25.0866 29.1018C25.8042 28.4185 26.6739 27.9156 27.6241 27.6344C28.5742 27.3532 29.5776 27.3019 30.5515 27.4846C31.5253 27.6674 32.4419 28.0789 33.2254 28.6854C34.009 29.2919 34.6373 30.0759 35.0584 30.9729C36.1958 30.1778 37.515 29.6817 38.8945 29.5304C38.8368 29.1638 38.8054 28.7935 38.8004 28.4224C38.8004 26.4819 39.5713 24.6208 40.9435 23.2486C42.3156 21.8765 44.1767 21.1056 46.1173 21.1056C46.9771 21.1033 47.8303 21.2556 48.6363 21.555C48.8183 21.6174 48.9963 21.6907 49.1694 21.7745C50.0457 21.3091 51.0274 21.0784 52.0192 21.1048C53.0111 21.1312 53.9792 21.4139 54.8294 21.9253C55.6796 22.4367 56.383 23.1594 56.8712 24.0232C57.3593 24.8869 57.6156 25.8624 57.6151 26.8545C57.613 28.0446 57.2444 29.2052 56.5594 30.1785C57.5696 30.6523 58.458 31.3509 59.1567 32.2208C59.8554 33.0907 60.3459 34.1089 60.5907 35.1975C60.8355 36.2861 60.828 37.4163 60.569 38.5016C60.3099 39.5868 59.8061 40.5985 59.096 41.4592C58.3859 42.3198 57.4884 43.0067 56.4721 43.4672C55.4558 43.9277 54.3476 44.1497 53.2323 44.1162C52.1171 44.0827 51.0242 43.7946 50.0374 43.2739C49.0506 42.7532 48.1959 42.0136 47.5388 41.1119C47.1853 41.9275 46.7056 42.6824 46.1173 43.3488C44.9995 44.6319 43.5144 45.5404 41.863 45.9515C41.2026 46.1117 40.5253 46.1924 39.8457 46.1919C39.6053 46.1919 39.3753 46.171 39.1454 46.1605C38.556 47.4183 37.6209 48.4823 36.4492 49.2282C35.2776 49.9742 33.9178 50.3712 32.5289 50.3729C31.821 50.3734 31.1169 50.2713 30.4383 50.0698Z" fill="#7BC24F"/>
<path d="M53.435 38.8757C52.2867 38.8749 51.1547 38.6039 50.1306 38.0846C49.1064 37.5653 48.2189 36.8122 47.5398 35.8862C47.1863 36.7019 46.7065 37.4567 46.1182 38.1231C45.0004 39.4062 43.5153 40.3148 41.864 40.7258C41.2035 40.886 40.5263 40.9667 39.8466 40.9662C39.6062 40.9662 39.3763 40.9453 39.1463 40.9348C38.557 42.1926 37.6218 43.2566 36.4502 44.0026C35.2785 44.7485 33.9188 45.1455 32.5298 45.1473C31.1374 45.149 29.7736 44.7523 28.5993 44.0041C27.4251 43.2558 26.4894 42.1872 25.9028 40.9244C25.6798 41.0622 25.4495 41.1878 25.213 41.3007C24.2331 41.7665 23.1621 42.0093 22.0772 42.0115C21.7304 42.0156 21.384 41.9877 21.0424 41.9278C19.9477 41.7874 18.9018 41.3898 17.9902 40.7676C16.7427 39.927 15.7844 38.7226 15.2453 37.3182C14.6536 38.8615 14.6029 40.5599 15.1015 42.1358C15.6001 43.7117 16.6185 45.0718 17.9902 45.9939C18.9018 46.6161 19.9477 47.0137 21.0424 47.1542C21.384 47.214 21.7304 47.242 22.0772 47.2378C23.1621 47.2356 24.2331 46.9928 25.213 46.527C25.4495 46.4141 25.6798 46.2885 25.9028 46.1507C26.4894 47.4135 27.4251 48.4821 28.5993 49.2304C29.7736 49.9786 31.1374 50.3753 32.5298 50.3736C33.9188 50.3718 35.2785 49.9748 36.4502 49.2289C37.6218 48.4829 38.557 47.4189 39.1463 46.1612C39.3763 46.1716 39.6062 46.1925 39.8466 46.1925C40.5263 46.193 41.2035 46.1123 41.864 45.9521C43.5153 45.5411 45.0004 44.6325 46.1182 43.3494C46.7065 42.683 47.1863 41.9282 47.5398 41.1125C48.5805 42.5496 50.1091 43.5584 51.8397 43.9504C53.5702 44.3423 55.3843 44.0905 56.9427 43.2421C58.5011 42.3937 59.6972 41.0067 60.3072 39.3404C60.9173 37.6742 60.8996 35.8428 60.2575 34.1887C59.7278 35.5683 58.7922 36.7549 57.5741 37.5917C56.356 38.4285 54.9128 38.8762 53.435 38.8757Z" fill="#44853B"/>
<path d="M56.5864 30.1926L56.5394 30.1999C56.3207 31.6452 55.574 32.958 54.4436 33.8847C53.3132 34.8114 51.8794 35.2862 50.4194 35.2172C49.4792 35.2296 48.5478 35.0352 47.6911 34.6477C46.8344 34.2603 46.0733 33.6893 45.4617 32.9751C45.1576 33.596 44.7536 34.1627 44.2659 34.6528C43.2874 35.6356 42.045 36.3139 40.689 36.6053C40.1315 36.7252 39.5628 36.7854 38.9926 36.7851C38.7898 36.7851 38.5964 36.7694 38.403 36.7611C38.0947 37.3489 37.6808 37.8751 37.1822 38.3133C35.983 39.3641 34.4387 39.9364 32.8443 39.9209C32.2512 39.9216 31.6606 39.845 31.0872 39.693C30.2841 39.4901 29.5311 39.1246 28.8748 38.619C28.2186 38.1134 27.6731 37.4786 27.272 36.7537C27.087 36.8583 26.8937 36.9492 26.6919 37.036C25.8571 37.3873 24.9605 37.5686 24.0547 37.569C23.7636 37.5722 23.4727 37.5512 23.1851 37.5063C22.2765 37.4049 21.4007 37.1079 20.6179 36.6356C19.4965 35.9783 18.6396 34.9502 18.195 33.7287C16.8511 34.5736 15.8181 35.8322 15.2515 37.315C15.7905 38.7194 16.7489 39.9238 17.9964 40.7644C18.9079 41.3866 19.9538 41.7842 21.0485 41.9246C21.3883 41.9852 21.733 42.0142 22.0781 42.0114C23.1631 42.0092 24.2341 41.7665 25.2139 41.3006C25.4505 41.1877 25.6808 41.0621 25.9038 40.9243C26.4904 42.1871 27.426 43.2557 28.6003 44.004C29.7745 44.7523 31.1384 45.1489 32.5308 45.1472C33.9197 45.1455 35.2795 44.7484 36.4511 44.0025C37.6228 43.2566 38.5579 42.1925 39.1473 40.9348C39.3772 40.9452 39.6072 40.9661 39.8476 40.9661C40.5272 40.9667 41.2045 40.886 41.8649 40.7257C43.5163 40.3147 45.0014 39.4061 46.1192 38.123C46.7075 37.4567 47.1872 36.7018 47.5407 35.8862C48.3158 36.9446 49.3615 37.7748 50.5681 38.2897C51.7747 38.8046 53.0977 38.9852 54.3981 38.8125C55.6986 38.6398 56.9285 38.1203 57.959 37.3083C58.9894 36.4964 59.7822 35.4221 60.2542 34.1981C59.5936 32.4401 58.2796 31.0051 56.5864 30.1926Z" fill="#5CB34F"/>
<path d="M21.7838 53.3836C21.5507 52.9504 21.3697 52.4911 21.2445 52.0153L16.4436 49.9551C16.2556 49.8737 16.0952 49.7396 15.9819 49.5689C15.8685 49.3982 15.8071 49.1984 15.8049 48.9935V47.8333C15.4632 47.9869 15.1057 48.1026 14.7388 48.1782C14.4021 48.2502 14.0587 48.2852 13.7144 48.2827V48.9935C13.7157 49.6067 13.896 50.2061 14.2332 50.7182C14.5704 51.2303 15.0499 51.6329 15.6126 51.8763L21.3731 54.3452C21.4857 54.3937 21.606 54.422 21.7284 54.4289L22.5427 54.4717C22.2517 54.1371 21.9972 53.7723 21.7838 53.3836Z" fill="#5D241D"/>
<path d="M29.3949 49.6526V51.7107L27.1717 52.4549C27.0322 52.502 26.9042 52.578 26.7961 52.678C26.688 52.778 26.6023 52.8996 26.5445 53.0351L27.502 53.4458L28.9476 54.0646L30.7705 53.4542C30.9785 53.3849 31.1595 53.2519 31.2878 53.0741C31.4162 52.8963 31.4853 52.6826 31.4854 52.4633V50.2975C30.7578 50.1993 30.0514 49.9813 29.3949 49.6526Z" fill="#5D241D"/>
<path d="M47.1355 41.8743C46.8508 42.4012 46.5098 42.8957 46.1185 43.3491C45.8 43.71 45.4502 44.0419 45.0732 44.3411V48.0319C45.0738 48.2276 45.0195 48.4195 44.9163 48.5858C44.8132 48.7521 44.6655 48.8862 44.49 48.9726L41.9374 50.2489V51.9621C41.9374 52.1314 41.9176 52.2966 41.904 52.4638H41.9374C42.1001 52.464 42.2604 52.4261 42.4057 52.353L45.4255 50.8374C45.9485 50.5789 46.3885 50.1791 46.6958 49.6832C47.003 49.1873 47.1651 48.6153 47.1638 48.0319V42.0112C47.1581 41.9649 47.1486 41.9191 47.1355 41.8743Z" fill="#5D241D"/>
<path d="M34.2449 62.9163C33.7614 62.9165 33.2928 62.7491 32.9189 62.4427C32.545 62.1362 32.2888 61.7096 32.1941 61.2355L31.4854 57.69L23.9271 53.9103C23.6857 53.7898 23.4826 53.6044 23.3406 53.3749C23.1987 53.1454 23.1234 52.8809 23.1233 52.6111V51.8271C23.1233 51.4415 23.2765 51.0717 23.5492 50.799C23.8218 50.5264 24.1916 50.3732 24.5773 50.3732H25.2138V46.5266C24.234 46.9925 23.163 47.2352 22.078 47.2374C21.7313 47.2416 21.3848 47.2136 21.0432 47.1538L21.0328 47.2374V50.415C21.0365 51.6427 21.3984 52.8426 22.0743 53.8676C22.7502 54.8925 23.7105 55.6979 24.8375 56.1848L28.3496 57.69V65.0068H36.7117L35.8755 62.9163H34.2449Z" fill="#714226"/>
<path d="M41.8631 45.9514C41.2026 46.1116 40.5253 46.1924 39.8457 46.1918C39.6053 46.1918 39.3753 46.1709 39.1454 46.1605C38.7872 46.9308 38.2953 47.6315 37.6925 48.2301L37.7552 48.2824V52.0976C37.7535 52.5145 37.6272 52.9213 37.3925 53.2659C37.1578 53.6105 36.8255 53.877 36.4382 54.0313L32.5289 55.5992L34.6194 59.7802L36.8918 58.4841L36.7611 58.2897C36.4649 57.845 36.3503 57.3038 36.4407 56.7772C36.5311 56.2506 36.8197 55.7785 37.2472 55.4581L38.5914 54.4494C38.9808 54.1573 39.2969 53.7786 39.5147 53.3431C39.7324 52.9077 39.8457 52.4276 39.8457 51.9408V50.3729C39.8457 49.8184 40.066 49.2867 40.458 48.8946C40.8501 48.5026 41.3818 48.2824 41.9362 48.2824V46.1918L41.8631 45.9514Z" fill="#714226"/>
<path d="M51.8673 21.1059C50.9271 21.104 50.0009 21.3338 49.1706 21.7749C48.9975 21.691 48.8194 21.6177 48.6375 21.5554C47.8315 21.2559 46.9782 21.1036 46.1184 21.1059C44.1778 21.1059 42.3168 21.8768 40.9446 23.2489C39.5724 24.6211 38.8016 26.4822 38.8016 28.4227C38.8065 28.7938 38.8379 29.1641 38.8956 29.5307C37.5162 29.6821 36.1969 30.1781 35.0595 30.9732C34.487 29.76 33.5401 28.7628 32.3583 28.1283C31.1764 27.4938 29.822 27.2556 28.4946 27.4488C27.1672 27.6419 25.9368 28.2562 24.9848 29.2012C24.0327 30.1462 23.4093 31.3719 23.2062 32.6978L23.1226 32.6874V35.8232L23.2062 35.8336C23.4201 34.4605 24.0815 33.1964 25.0877 32.2379C25.8053 31.5546 26.675 31.0517 27.6252 30.7705C28.5753 30.4893 29.5787 30.438 30.5526 30.6207C31.5265 30.8035 32.443 31.215 33.2266 31.8215C34.0102 32.428 34.6384 33.212 35.0595 34.109C36.1969 33.3139 37.5162 32.8178 38.8956 32.6665C38.8379 32.2999 38.8065 31.9296 38.8016 31.5585C38.8016 29.618 39.5724 27.7569 40.9446 26.3847C42.3168 25.0126 44.1778 24.2417 46.1184 24.2417C46.9782 24.2394 47.8315 24.3916 48.6375 24.6911C48.8194 24.7535 48.9975 24.8268 49.1706 24.9106C49.9265 24.5098 50.7624 24.2827 51.6173 24.246C52.4722 24.2093 53.3245 24.3639 54.112 24.6986C54.8996 25.0332 55.6025 25.5394 56.1695 26.1802C56.7365 26.8211 57.1533 27.5804 57.3895 28.4029C57.6377 27.5493 57.6831 26.6494 57.5219 25.7752C57.3606 24.901 56.9973 24.0765 56.4608 23.3676C55.9244 22.6588 55.2297 22.0851 54.4321 21.6924C53.6346 21.2997 52.7563 21.0989 51.8673 21.1059Z" fill="#8EE05B"/>
<path d="M43.0695 18.3885C41.8736 17.4844 40.4844 16.8699 39.0111 16.593C37.5377 16.3161 36.0202 16.3844 34.5777 16.7925C33.1352 17.2006 31.8068 17.9375 30.6969 18.9452C29.5871 19.953 28.7258 21.2043 28.1808 22.6009C28.2205 21.1939 26.6798 20.3013 25.3084 19.9814C23.1416 19.4929 20.8799 19.638 18.7933 20.3995C18.3463 20.6136 17.8783 20.7807 17.3968 20.8981C16.8595 20.9744 16.3045 20.9086 15.7599 21.0027C15.4473 21.0586 15.1384 21.1337 14.8349 21.2274C14.7901 21.5334 14.7657 21.8421 14.7617 22.1514C14.7575 22.4982 14.7855 22.8446 14.8453 23.1862C15.09 24.9299 15.957 26.5262 17.2864 27.6808C18.6157 28.8353 20.3178 29.4702 22.0785 29.4682C23.0282 29.4667 23.9687 29.2821 24.8485 28.9247C24.9242 28.9897 25.0045 29.0491 25.0889 29.1024C25.8065 28.4191 26.6762 27.9161 27.6264 27.635C28.5765 27.3538 29.5799 27.3024 30.5538 27.4852C31.5276 27.6679 32.4442 28.0795 33.2278 28.686C34.0113 29.2924 34.6396 30.0765 35.0607 30.9734C36.1981 30.1783 37.5173 29.6823 38.8968 29.5309C38.8391 29.1643 38.8077 28.7941 38.8027 28.423C38.8027 26.4824 39.5736 24.6214 40.9458 23.2492C42.318 21.877 44.179 21.1061 46.1196 21.1061C46.9794 21.1039 47.8326 21.2561 48.6386 21.5556C50.0078 20.4434 50.9273 18.8725 51.2267 17.1341C49.8771 16.6056 48.4118 16.4432 46.9793 16.6635C45.5468 16.8838 44.1979 17.4789 43.0695 18.3885Z" fill="#44853B"/>
<path d="M49.3464 10.8619C49.0015 10.8619 48.6565 10.8462 48.3105 10.8692C46.0279 10.9429 43.8618 11.8948 42.2637 13.5263C41.5043 12.771 40.5973 12.1806 39.5993 11.7919C38.6013 11.4032 37.5338 11.2247 36.4637 11.2673C35.3935 11.31 34.3437 11.573 33.3798 12.04C32.416 12.5069 31.5588 13.1677 30.862 13.981C30.0734 13.3238 29.1524 12.8443 28.1619 12.575C27.1713 12.3058 26.1343 12.253 25.1216 12.4205C24.1088 12.5879 23.144 12.9715 22.2928 13.5453C21.4416 14.119 20.724 14.8694 20.1888 15.7454C19.6021 15.2439 18.9222 14.863 18.188 14.6247C17.4539 14.3863 16.68 14.2951 15.9105 14.3562C14.3701 14.4886 12.8918 15.0251 11.625 15.9116C10.9677 16.3632 10.3583 16.8809 9.80621 17.4565C10.1379 18.5118 10.7968 19.4342 11.6875 20.0902C12.5782 20.7462 13.6545 21.1018 14.7608 21.1055C14.7921 21.1055 14.813 21.095 14.8444 21.095C14.8381 21.1379 14.8444 21.1818 14.8339 21.2246C15.1374 21.131 15.4463 21.0559 15.759 20.9999C16.3036 20.9058 16.8586 20.9717 17.3959 20.8954C17.8774 20.778 18.3454 20.6109 18.7923 20.3968C20.879 19.6353 23.1406 19.4901 25.3075 19.9787C26.6788 20.2923 28.2196 21.1912 28.1798 22.5981C28.7251 21.2017 29.5865 19.9507 30.6965 18.9431C31.8065 17.9356 33.1348 17.1989 34.5773 16.791C36.0198 16.3831 37.5372 16.315 39.0105 16.592C40.4837 16.8691 41.8728 17.4837 43.0685 18.3878C44.1965 17.479 45.5446 16.8843 46.9764 16.664C48.4081 16.4438 49.8726 16.6057 51.2216 17.1335C51.4284 16.0138 51.3657 14.861 51.0385 13.7704C50.7113 12.6798 50.1291 11.6828 49.3401 10.8619H49.3464Z" fill="#52A147"/>
<path d="M5.43793 41.842C5.66283 40.8956 5.94878 39.9647 6.294 39.0553C5.73005 38.9184 5.23342 38.5848 4.89335 38.1145C4.47285 37.5896 4.19157 36.9671 4.07555 36.3046C3.95953 35.6421 4.01251 34.961 4.22961 34.3244C4.46946 33.6861 4.88647 33.1295 5.43166 32.72C5.70047 32.515 5.99764 32.3502 6.31386 32.2308C6.52291 32.1524 7.16888 32.1179 7.24205 31.9329C7.30686 31.7688 6.79468 31.0381 6.71942 30.8625C6.52949 30.4517 6.36882 30.028 6.2386 29.5946C5.97201 28.7373 5.88031 27.8352 5.96892 26.9417C6.01532 26.5604 6.10222 26.1852 6.22815 25.8223C5.34223 26.2456 4.59387 26.9105 4.06924 27.7404C3.54462 28.5703 3.26505 29.5316 3.26274 30.5134C3.26274 30.6597 3.2941 30.7956 3.30455 30.9315C2.36178 31.3331 1.55788 32.003 0.99283 32.8579C0.427784 33.7128 0.126526 34.715 0.126526 35.7397C0.126526 36.7645 0.427784 37.7666 0.99283 38.6215C1.55788 39.4764 2.36178 40.1463 3.30455 40.5479C3.2941 40.6838 3.26274 40.8197 3.26274 40.966C3.2627 41.6795 3.44599 42.3811 3.79503 43.0034C4.14408 43.6257 4.64717 44.1479 5.25605 44.5199C5.19439 43.6231 5.25558 42.7222 5.43793 41.842Z" fill="#39632C"/>
<path d="M24.8483 28.9243C23.9685 29.2817 23.028 29.4663 22.0784 29.4678C20.3176 29.4698 18.6156 28.8349 17.2862 27.6804C15.9568 26.5258 15.0898 24.9294 14.8451 23.1858L14.7615 23.1962C13.9344 23.1989 13.1267 23.4468 12.4405 23.9086C11.7543 24.3704 11.2205 25.0253 10.9066 25.7906C11.2338 26.8641 11.6581 27.9104 12.0846 28.9494C12.2226 29.288 12.3616 29.6267 12.5278 29.9528C12.7865 30.5081 13.128 31.0209 13.5407 31.4737C13.1249 31.7416 12.7332 32.0452 12.37 32.381C12.0177 32.739 11.7096 33.138 11.4522 33.5694C10.9384 34.4335 10.6082 35.3942 10.4822 36.3916C10.2962 38.3932 10.6383 40.4086 11.4742 42.2367C10.333 42.9679 9.47794 44.0691 9.05231 45.3558C9.47846 46.2308 10.1413 46.9688 10.9657 47.4862C11.7901 48.0035 12.743 48.2794 13.7163 48.2825C14.0605 48.2851 14.404 48.25 14.7406 48.178C16.002 47.9285 17.1264 47.2211 17.8973 46.192L17.9914 45.9934C16.6895 45.1185 15.7032 43.8484 15.178 42.3704C14.6528 40.8923 14.6164 39.2846 15.0743 37.7844C15.5323 36.2842 16.4602 34.9708 17.7213 34.038C18.9823 33.1052 20.5098 32.6023 22.0784 32.6036C22.4564 32.6085 22.8336 32.64 23.2072 32.6977C23.4211 31.3245 24.0825 30.0605 25.0887 29.102C25.0043 29.0487 24.924 28.9893 24.8483 28.9243Z" fill="#233D1B"/>
<path d="M11.4721 42.2412C10.6362 40.413 10.2941 38.3977 10.4801 36.3961C10.6062 35.3987 10.9364 34.438 11.4501 33.5739C11.7075 33.1425 12.0156 32.7435 12.3679 32.3854C12.7311 32.0496 13.1228 31.746 13.5386 31.4781C13.1259 31.0254 12.7844 30.5126 12.5257 29.9573C12.3595 29.6312 12.2205 29.2925 12.0825 28.9538C11.6561 27.9148 11.2317 26.8633 10.9045 25.795C10.8909 25.8264 10.8732 25.8557 10.8606 25.887C10.1491 25.5062 9.35644 25.302 8.54949 25.2917C7.74253 25.2813 6.94491 25.4651 6.22383 25.8275C6.0979 26.1903 6.011 26.5656 5.9646 26.9469C5.87599 27.8404 5.96769 28.7425 6.23428 29.5998C6.36449 30.0332 6.52517 30.4569 6.7151 30.8677C6.79558 31.0433 7.30776 31.7739 7.23773 31.9381C7.16456 32.1231 6.51859 32.1576 6.30954 32.236C5.99332 32.3554 5.69615 32.5202 5.42734 32.7251C4.88215 33.1347 4.46514 33.6913 4.22529 34.3296C4.00819 34.9662 3.9552 35.6473 4.07123 36.3098C4.18725 36.9723 4.46853 37.5948 4.88903 38.1197C5.2291 38.59 5.72573 38.9235 6.28968 39.0605C5.94375 39.9699 5.6571 40.9007 5.43152 41.8471C5.2514 42.7259 5.19197 43.6251 5.25487 44.5199C5.91133 44.9289 6.66913 45.1462 7.4426 45.147C7.91655 45.1394 8.38609 45.0547 8.8328 44.8962C8.89447 45.0571 8.97496 45.2097 9.05022 45.3603C9.47585 44.0736 10.3309 42.9723 11.4721 42.2412Z" fill="#2F5224"/>
<path d="M11.6253 15.912C12.5862 15.2563 13.6604 14.7846 14.7934 14.5207C14.8699 13.1941 15.4501 11.9468 16.4155 11.0337C17.3809 10.1206 18.6585 9.61061 19.9874 9.60801C20.7038 9.60704 21.4125 9.75661 22.0674 10.047C23.0281 8.42872 24.5764 7.24379 26.3895 6.73939C28.2026 6.235 30.1405 6.45009 31.7988 7.33979C32.6231 6.58456 33.6099 6.02886 34.683 5.71562C35.7561 5.40238 36.8869 5.33998 37.988 5.53322C39.0891 5.72647 40.1311 6.1702 41.0334 6.83015C41.9358 7.4901 42.6744 8.34861 43.1922 9.33938C43.7023 8.88678 44.0284 8.56275 44.0284 8.56275H43.9448C43.9994 8.21699 44.0273 7.86754 44.0284 7.51749C44.0313 6.0998 43.6214 4.71192 42.8488 3.52324C42.0762 2.33456 40.9743 1.39647 39.6776 0.823468C38.3809 0.250466 36.9454 0.0673259 35.5463 0.296399C34.1472 0.525472 32.8451 1.15685 31.7988 2.11348C30.1405 1.22377 28.2026 1.00869 26.3895 1.51308C24.5764 2.01748 23.0281 3.20241 22.0674 4.82071C21.4125 4.5303 20.7038 4.38073 19.9874 4.3817C18.6012 4.3817 17.2719 4.93233 16.2918 5.91245C15.3117 6.89258 14.761 8.22191 14.761 9.60801C14.7637 9.96236 14.7987 10.3157 14.8656 10.6637C14.8342 10.6637 14.8029 10.6533 14.761 10.6533C13.3749 10.6533 12.0456 11.2039 11.0655 12.184C10.0854 13.1642 9.53473 14.4935 9.53473 15.8796C9.53992 16.6654 9.72742 17.4394 10.0824 18.1405C9.97379 17.9193 9.88054 17.6909 9.80336 17.4569C10.3564 16.8811 10.9669 16.3635 11.6253 15.912Z" fill="#7BC24F"/>
<path d="M33.5749 43.7983V46.4508C33.5749 47.0492 33.2202 47.5902 32.6708 47.8285L29.0797 49.3867C29.0392 49.4044 29.007 49.437 28.9902 49.4781L28.4844 50.7109C28.4675 50.7528 28.468 50.7997 28.4851 50.8416L29.9864 54.3831C30.2268 54.9502 30.1 55.5976 29.6649 56.0319L27.7874 57.9076C27.3641 58.3302 26.7317 58.4616 26.1744 58.2419L22.5377 56.8074C22.4966 56.7911 22.4514 56.7916 22.4103 56.8087L21.1737 57.3183C21.1318 57.3359 21.0979 57.3699 21.0808 57.4117L19.6338 60.9798C19.4024 61.5497 18.8563 61.9174 18.2415 61.9174H15.5906C14.9922 61.9174 14.4512 61.5627 14.2128 61.014L12.6526 57.424C12.635 57.3837 12.6031 57.3523 12.5625 57.3352L11.3337 56.825C11.2911 56.8074 11.2437 56.808 11.2018 56.8256L7.67074 58.3348C7.1037 58.5772 6.45501 58.4516 6.01863 58.016L4.12996 56.1286C3.70583 55.7053 3.57467 55.0709 3.79464 54.5138L5.23137 50.8748C5.2477 50.8337 5.24693 50.7885 5.23009 50.7482L4.72098 49.5174C4.70338 49.4755 4.6702 49.4421 4.62758 49.4253L1.06461 47.9809C0.495022 47.7494 0.126526 47.2033 0.126526 46.5886V43.9318C0.126526 43.3326 0.482007 42.7916 1.03143 42.5532L4.61661 40.9991C4.65719 40.9815 4.68909 40.9489 4.70618 40.9075L5.21376 39.6762C5.2306 39.6351 5.2306 39.5874 5.21299 39.5456L3.71579 36.0033C3.47667 35.4377 3.60274 34.7916 4.03656 34.3565L5.90941 32.4821C6.33149 32.0588 6.96462 31.9268 7.52119 32.145L11.1691 33.5784C11.2102 33.594 11.2554 33.594 11.2957 33.5772L12.5252 33.0668C12.5671 33.0492 12.6005 33.016 12.6174 32.9741L14.0651 29.4066C14.2957 28.8367 14.8426 28.469 15.4574 28.469H18.1045C18.7029 28.469 19.2436 28.8237 19.4823 29.3724L21.041 32.9616C21.0586 33.0022 21.0912 33.0341 21.1318 33.0504L22.3651 33.558C22.407 33.5759 22.4547 33.5751 22.4958 33.5575L26.032 32.0509C26.599 31.8092 27.2464 31.9347 27.6823 32.3698L29.5656 34.2498C29.9897 34.6732 30.1217 35.3063 29.9022 35.8642L28.4642 39.5103C28.4486 39.5514 28.4486 39.5963 28.4655 39.6369L28.9751 40.8723C28.9927 40.9149 29.0266 40.9481 29.0685 40.9652L32.6348 42.4055C33.2059 42.6357 33.5749 43.1823 33.5749 43.7983Z" fill="#FFD634"/>
<path d="M33.5742 43.7983V46.4508C33.5742 47.0492 33.2195 47.5902 32.6701 47.8285L29.0791 49.3867C29.0385 49.4044 29.0063 49.437 28.9895 49.4781L28.4837 50.7109C28.4669 50.7528 28.4674 50.7997 28.4845 50.8416L29.9857 54.3831C30.2261 54.9502 30.0993 55.5976 29.6642 56.0319L27.7868 57.9076C27.3634 58.3302 26.731 58.4616 26.1737 58.2419L22.537 56.8074C22.4959 56.7911 22.4507 56.7916 22.4096 56.8087L21.173 57.3183C21.1311 57.3359 21.0972 57.3699 21.0801 57.4117L19.6332 60.9798C19.4017 61.5497 18.8556 61.9174 18.2408 61.9174H16.7906V28.469H18.1038C18.7022 28.469 19.243 28.8237 19.4816 29.3724L21.0403 32.9616C21.0579 33.0022 21.0906 33.0341 21.1311 33.0504L22.3645 33.558C22.4063 33.5759 22.454 33.5751 22.4951 33.5575L26.0313 32.0509C26.5983 31.8092 27.2458 31.9347 27.6816 32.3698L29.5649 34.2498C29.9891 34.6732 30.121 35.3063 29.9015 35.8642L28.4635 39.5103C28.448 39.5514 28.448 39.5963 28.4648 39.6369L28.9744 40.8723C28.992 40.9149 29.026 40.9481 29.0678 40.9652L32.6341 42.4055C33.2052 42.6357 33.5742 43.1823 33.5742 43.7983Z" fill="#FFAC00"/>
<path d="M25.9498 45.1933C25.9498 50.2407 21.8433 54.3472 16.7961 54.3472H16.7907C11.7461 54.3444 7.64215 50.2386 7.64215 45.1933C7.64215 40.1479 11.7461 36.0421 16.7907 36.0393H16.7961C21.8433 36.0393 25.9498 40.1458 25.9498 45.1933Z" fill="#FFAC00"/>
<path d="M25.9496 45.1933C25.9496 50.2407 21.8431 54.3472 16.7959 54.3472H16.7906V36.0393H16.7959C21.8431 36.0393 25.9496 40.1458 25.9496 45.1933Z" fill="#FF6405"/>
<path d="M21.963 44.1674C21.3934 44.7373 20.6439 45.0213 19.8952 45.0213C19.4654 45.0213 19.0357 44.9279 18.6391 44.7398L16.7928 46.5841L16.3439 47.0322C16.5282 47.4188 16.6257 47.8455 16.6257 48.2872C16.6257 49.0678 16.3212 49.802 15.7685 50.354C15.5771 50.5449 15.3267 50.6403 15.0759 50.6403C14.825 50.6403 14.5742 50.5441 14.3828 50.3527C14 49.9699 14.0008 49.3493 14.3835 48.9673C14.5658 48.7856 14.6658 48.5439 14.6658 48.2872C14.6658 48.0305 14.5658 47.7886 14.3835 47.6071C14.0071 47.2307 13.3944 47.2307 13.0175 47.6071C12.6347 47.9892 12.0141 47.9886 11.6318 47.6059C11.2495 47.2228 11.2495 46.6022 11.6331 46.2202C12.5301 45.3237 13.8706 45.1331 14.957 45.6478L16.7928 43.814L17.2521 43.3554C17.0679 42.9688 16.9704 42.5421 16.9704 42.1004C16.9704 41.3197 17.2749 40.5856 17.8276 40.0336C18.2104 39.6513 18.831 39.6521 19.2133 40.0349C19.5961 40.4176 19.5953 41.0383 19.2125 41.4203C19.0303 41.602 18.9303 41.8436 18.9303 42.1004C18.9303 42.3571 19.0303 42.599 19.2125 42.7805C19.5889 43.1569 20.2016 43.1569 20.5786 42.7805C20.9614 42.3984 21.582 42.3989 21.9643 42.7817C22.3465 43.1648 22.3465 43.7854 21.963 44.1674Z" fill="white"/>
<path d="M21.9608 44.1674C21.3912 44.7373 20.6417 45.0213 19.8929 45.0213C19.4632 45.0213 19.0335 44.9279 18.6369 44.7398L16.7906 46.5841V43.814L17.2499 43.3554C17.0657 42.9688 16.9682 42.5421 16.9682 42.1004C16.9682 41.3197 17.2726 40.5856 17.8254 40.0336C18.2082 39.6513 18.8288 39.6521 19.2111 40.0349C19.5939 40.4176 19.5931 41.0383 19.2103 41.4203C19.0281 41.602 18.9281 41.8436 18.9281 42.1004C18.9281 42.3571 19.0281 42.599 19.2103 42.7805C19.5867 43.1569 20.1994 43.1569 20.5763 42.7805C20.9591 42.3984 21.5798 42.3989 21.962 42.7817C22.3443 43.1648 22.3443 43.7854 21.9608 44.1674Z" fill="#E3EFEE"/>
</svg>
