<svg width="17" height="17" viewBox="0 0 17 17" fill="none" xmlns="http://www.w3.org/2000/svg">
<path fill-rule="evenodd" clip-rule="evenodd" d="M15.9227 13.4816V14.1585C15.9227 14.9585 15.2457 15.6354 14.4457 15.6354H2.63037C1.83037 15.6354 1.15344 14.9585 1.15344 14.1585V13.4816C1.15344 11.697 3.24575 10.5893 5.21498 9.72775L5.3996 9.63544C5.55344 9.5739 5.70729 9.5739 5.86113 9.66621C6.66113 10.1893 7.55344 10.4662 8.50729 10.4662C9.46113 10.4662 10.3842 10.1585 11.1534 9.66621C11.3073 9.5739 11.4611 9.5739 11.615 9.63544L11.7996 9.72775C13.8304 10.5893 15.9227 11.6662 15.9227 13.4816ZM8.53806 0.866211C10.5688 0.866211 12.1996 2.6816 12.1996 4.92775C12.1996 7.1739 10.5688 8.98929 8.53806 8.98929C6.50729 8.98929 4.87652 7.1739 4.87652 4.92775C4.87652 2.6816 6.50729 0.866211 8.53806 0.866211Z" fill="#797979"/>
</svg>
