<svg width="29" height="25" viewBox="0 0 29 25" fill="none" xmlns="http://www.w3.org/2000/svg">
<path d="M17.6937 2.88001C17.7337 2.88001 17.7737 2.87801 17.8147 2.87201C18.3077 2.80601 18.6527 2.35201 18.5857 1.86001L18.4647 0.962012C18.3997 0.469012 17.9507 0.125012 17.4527 0.190012C16.9597 0.256012 16.6147 0.710012 16.6817 1.20201L16.8027 2.10001C16.8637 2.55201 17.2497 2.88001 17.6937 2.88001ZM27.9777 8.21201L27.0807 8.33301C26.5877 8.39901 26.2427 8.85301 26.3097 9.34501C26.3707 9.79701 26.7567 10.125 27.2007 10.125C27.2407 10.125 27.2807 10.123 27.3217 10.117L28.2187 9.99601C28.7117 9.93001 29.0567 9.47601 28.9897 8.98401C28.9237 8.49001 28.4737 8.14801 27.9777 8.21201ZM11.5577 5.94701C11.7207 6.07201 11.9117 6.13101 12.1027 6.13101C12.3737 6.13101 12.6427 6.00901 12.8187 5.77701C13.1197 5.38101 13.0437 4.81701 12.6487 4.51601L11.9277 3.96701C11.5327 3.66501 10.9677 3.74101 10.6667 4.13701C10.3657 4.53301 10.4417 5.09701 10.8367 5.39801L11.5577 5.94701ZM26.0917 14.762C25.6957 14.46 25.1327 14.536 24.8297 14.932C24.5287 15.328 24.6037 15.892 24.9997 16.194L25.7207 16.744C25.8837 16.868 26.0747 16.929 26.2657 16.929C26.5367 16.929 26.8047 16.807 26.9827 16.575C27.2837 16.179 27.2087 15.615 26.8127 15.313L26.0917 14.762ZM23.9467 4.53301C24.2177 4.53301 24.4857 4.41101 24.6637 4.17901L25.2137 3.45901C25.5147 3.06401 25.4397 2.50001 25.0437 2.19801C24.6477 1.89501 24.0837 1.97101 23.7817 2.36701L23.2317 3.08701C22.9307 3.48201 23.0057 4.04601 23.4017 4.34801C23.5647 4.47301 23.7557 4.53301 23.9467 4.53301ZM23.2807 18.988C23.2807 22.04 20.8007 24.52 17.7397 24.52H8.66166C3.93366 24.52 0.0976562 20.684 0.0976562 15.946C0.0976562 11.218 3.93366 7.38201 8.66166 7.38201C12.5567 7.38201 15.8407 9.97801 16.8867 13.524C17.1677 13.466 17.4487 13.446 17.7397 13.446C20.8007 13.447 23.2807 15.927 23.2807 18.988ZM18.1047 11.655C20.0017 11.748 21.7077 12.568 22.9597 13.837C23.7527 12.897 24.2377 11.688 24.2377 10.361C24.2377 7.37101 21.8177 4.94101 18.8277 4.94101C16.9727 4.94101 15.3367 5.87901 14.3597 7.30501C15.9697 8.36601 17.2847 9.86401 18.1047 11.655Z" fill="#24B763"/>
</svg>
